<?xml version="1.0" encoding="UTF-8"?><svg id="Warstwa_2" xmlns="http://www.w3.org/2000/svg" viewBox="0 0 532.76 205.55"><defs><style>.cls-1{fill:#fff;}.cls-2{fill:#059f8e;}.cls-3{fill:#1d1d1b;}</style></defs><g id="Warstwa_1-2"><g><rect class="cls-1" width="532.74" height="205.52"/><g id="Group_699" transform="translate(-513.462 -2447.436)"><g id="_027.1-22_Kozminski_portal_mymigrant.org_LOGO_final_kolor_pl" transform="translate(513.462 2447.436)"><g id="Group_697" transform="translate(23.58 1.49)"><path id="Path_397" class="cls-3" d="M212.6,56.32c-.02,1.31-1.07,2.36-2.38,2.38h-3.15c-1.31-.02-2.36-1.07-2.38-2.38V16.03c.02-1.31,1.07-2.36,2.38-2.38h3.67c1.22,.04,2.36,.63,3.09,1.61l14.23,19.43,13.57-19.43c.69-.99,1.81-1.58,3.02-1.61h3.15c1.31,.02,2.36,1.07,2.38,2.38V56.32c-.02,1.31-1.07,2.36-2.38,2.38h-3.09c-1.31-.02-2.36-1.07-2.38-2.38V26.13l-11.78,16.54c-.66,1.04-1.79,1.68-3.02,1.74-1.25-.05-2.4-.69-3.09-1.74l-11.84-16.34v29.99h0Z"/><path id="Path_398" class="cls-3" d="M284.37,12.93c12.84,.11,23.16,10.6,23.05,23.43-.11,12.84-10.6,23.16-23.43,23.05-12.77-.1-23.06-10.49-23.05-23.25-.33-12.5,9.53-22.91,22.03-23.24,.47-.01,.94-.01,1.4,0Zm0,39.06c8.15,.23,14.93-6.19,15.16-14.34,.01-.5,0-1-.03-1.5-.4-8.34-7.49-14.77-15.82-14.36-8.34,.4-14.77,7.49-14.36,15.82,.39,8.04,7.01,14.36,15.06,14.38Z"/><path id="Path_399" class="cls-3" d="M321.57,16.02c.02-1.31,1.07-2.36,2.38-2.38h3.15c1.31,.02,2.36,1.07,2.38,2.38V48.08c.81,5.42-2.92,10.47-8.34,11.28-.84,.13-1.69,.14-2.54,.05-2.06,0-4.09-.42-5.99-1.22-.89-.29-1.49-1.12-1.48-2.06,0-.33,.07-.66,.19-.96l.77-2.19c.26-.94,1.15-1.57,2.13-1.48,.32,.01,.65,.06,.96,.13,.75,.22,1.53,.35,2.32,.39,2.9,0,4.05-2.06,4.05-5.28V16.04l.02-.02Z"/><path id="Path_400" class="cls-3" d="M350.21,47.18l-3.99,9.72c-.41,1.08-1.45,1.8-2.6,1.81h-2.32c-1.36,.02-2.48-1.06-2.51-2.42,0-.03,0-.06,0-.09,.01-.3,.08-.59,.19-.87l16.86-39.98c.46-1.09,1.52-1.8,2.7-1.81h3.09c1.18,0,2.24,.72,2.7,1.81l16.86,39.98c.11,.28,.18,.57,.19,.87,.02,1.37-1.07,2.49-2.44,2.51-.03,0-.05,0-.08,0h-2.77c-1.16,0-2.19-.72-2.6-1.81l-3.99-9.72h-19.29Zm3.02-7.4h13.19l-6.56-16.02-6.63,16.02Z"/><path id="Path_401" class="cls-3" d="M212.6,120.69c-.02,1.31-1.07,2.36-2.38,2.38h-3.15c-1.31-.02-2.36-1.07-2.38-2.38v-40.29c.02-1.31,1.07-2.36,2.38-2.38h3.67c1.22,.04,2.36,.63,3.09,1.61l14.23,19.43,13.57-19.43c.69-.99,1.81-1.58,3.02-1.61h3.15c1.31,.02,2.36,1.07,2.38,2.38v40.29c-.02,1.31-1.07,2.36-2.38,2.38h-3.09c-1.31-.02-2.36-1.07-2.38-2.38v-30.19l-11.78,16.54c-.66,1.04-1.79,1.68-3.02,1.74-1.25-.05-2.4-.69-3.09-1.74l-11.84-16.34v29.99Z"/><path id="Path_402" class="cls-3" d="M273.17,120.69c-.02,1.31-1.07,2.36-2.38,2.38h-3.15c-1.31-.02-2.36-1.07-2.38-2.38v-40.29c.02-1.31,1.07-2.36,2.38-2.38h3.15c1.31,.02,2.36,1.07,2.38,2.38v40.29Z"/><path id="Path_403" class="cls-3" d="M308.51,116.35c3.36,0,6.63-1.09,9.33-3.09v-7.08h-8.5c-1.31-.02-2.36-1.07-2.38-2.38v-2.6c.02-1.31,1.07-2.36,2.38-2.38h13.51c1.31,.02,2.36,1.07,2.38,2.38v14.55c0,1.18-.55,2.3-1.48,3.02-4.49,3.21-9.86,4.97-15.38,5.03-11.94,1.03-22.45-7.82-23.48-19.76-.1-1.16-.11-2.32-.02-3.47-.7-12.11,8.55-22.5,20.66-23.2,.6-.03,1.2-.05,1.81-.03,4.75-.26,9.46,.93,13.51,3.41,.56,.37,.88,1.01,.87,1.68-.02,.48-.15,.94-.39,1.35l-1.41,2.32c-.39,.7-1.14,1.12-1.94,1.09-.52-.01-1.03-.15-1.48-.39-2.52-1.33-5.32-2.04-8.18-2.06-8.74,.4-15.5,7.82-15.1,16.56,.38,8.25,7.04,14.83,15.29,15.11v-.04Z"/><path id="Path_404" class="cls-3" d="M350.08,106.2h-5.54v14.49c-.02,1.31-1.07,2.36-2.38,2.38h-3.19c-1.31-.02-2.36-1.07-2.38-2.38v-40.29c0-1.31,1.06-2.38,2.38-2.38,3.86-.07,10.3-.13,11.34-.13,12.3,0,16.34,6.08,16.34,13.89,.28,5.74-3.25,10.98-8.68,12.87l11.2,14.68c.34,.39,.53,.9,.52,1.41,0,1.28-1.03,2.31-2.3,2.32h-2.98c-1.22-.04-2.36-.63-3.09-1.61l-11.28-15.25h.04Zm-.39-7.4c4.57,0,8.62-2.32,8.62-6.94,0-3.54-1.94-6.56-8.37-6.56-1.48,0-3.29,.07-5.41,.13v13.39l5.16-.02Z"/><path id="Path_405" class="cls-3" d="M386.32,111.55l-3.99,9.72c-.41,1.08-1.45,1.8-2.6,1.81h-2.34c-1.36,.02-2.48-1.06-2.51-2.42,0-.03,0-.06,0-.09,.01-.3,.08-.59,.19-.87l16.86-39.98c.46-1.09,1.52-1.8,2.7-1.81h3.09c1.18,0,2.24,.72,2.7,1.81l16.86,39.98c.11,.28,.18,.57,.19,.87,.02,1.37-1.07,2.49-2.44,2.51-.03,0-.05,0-.08,0h-2.77c-1.16,0-2.19-.72-2.6-1.81l-3.99-9.72h-19.27Zm3.02-7.4h13.19l-6.56-16.02-6.63,16.02Z"/><path id="Path_406" class="cls-3" d="M444.89,84.7c-8.02-.11-14.62,6.3-14.73,14.32,0,.51,.01,1.01,.06,1.52-.61,8.13,5.48,15.21,13.6,15.82,.65,.05,1.31,.05,1.97,.02,2.86-.03,5.66-.8,8.12-2.26,.46-.24,.97-.37,1.48-.39,.84-.04,1.63,.38,2.06,1.09l1.16,1.81c.3,.43,.46,.95,.45,1.48,.02,.71-.3,1.38-.87,1.81-3.85,2.62-8.42,3.97-13.07,3.86-12.84-.19-23.08-10.75-22.89-23.59,.19-12.49,10.22-22.6,22.71-22.89,4.13,.11,8.17,1.21,11.78,3.22,.76,.32,1.26,1.05,1.28,1.87-.02,.45-.15,.9-.39,1.28l-1.35,2.38c-.37,.74-1.11,1.21-1.94,1.22-.5,0-.98-.14-1.41-.39-2.44-1.37-5.18-2.13-7.98-2.19h-.04Z"/><path id="Path_407" class="cls-3" d="M472.96,80.39c.02-1.31,1.07-2.36,2.38-2.38h3.15c1.31,.02,2.36,1.07,2.38,2.38v32.05c.81,5.42-2.92,10.47-8.34,11.28-.84,.13-1.69,.14-2.54,.05-2.06,0-4.09-.42-5.99-1.22-.89-.29-1.49-1.12-1.48-2.06,0-.33,.07-.66,.19-.96l.77-2.19c.26-.94,1.15-1.57,2.13-1.48,.32,.01,.65,.06,.96,.13,.75,.22,1.53,.35,2.32,.39,2.9,0,4.05-2.06,4.05-5.28v-30.7l.02-.02Z"/><path id="Path_408" class="cls-3" d="M501.6,111.55l-3.99,9.72c-.41,1.08-1.45,1.8-2.6,1.81h-2.32c-1.37,.02-2.49-1.06-2.52-2.43,0-.03,0-.05,0-.08,.01-.3,.08-.59,.19-.87l16.86-39.98c.46-1.09,1.52-1.8,2.7-1.81h3.09c1.18,0,2.24,.72,2.7,1.81l16.86,39.98c.11,.28,.18,.57,.19,.87,.02,1.37-1.07,2.49-2.44,2.51-.02,0-.05,0-.07,0h-2.77c-1.16,0-2.19-.72-2.6-1.81l-3.99-9.72h-19.29Zm3.02-7.4h13.19l-6.56-16.02-6.63,16.02Z"/></g><g id="Group_698" transform="translate(0 0)"><path id="Path_409" class="cls-2" d="M145.78,3.35c-.71-.7-1.67-1.09-2.67-1.1l-14.22,.08c-2.07,0-3.74,1.68-3.74,3.74,0,2.06,1.67,3.73,3.74,3.74h4.83c-2.74,3.23-7.32,8.57-12.2,14.15-7.17-5.22-15.93-7.8-24.79-7.3-28.23,.37-38.29,17.04-38.29,32.52-.39,7.53,2.37,14.89,7.61,20.31,8.39,6.83,19.17,10.03,29.93,8.89,6.48,4.71,12.45,10.09,17.81,16.05,.71,.74,1.69,1.16,2.71,1.15,2.07,0,3.74-1.67,3.74-3.74v-17.23c0-2.07-1.68-3.74-3.74-3.74-2.06,0-3.73,1.67-3.74,3.74v8.12c-12.24-11.94-15.29-11.87-16.55-11.83-8.87,1.11-17.83-1.32-24.93-6.76-3.8-4.02-5.74-9.44-5.36-14.95,0-5.78,2.23-24.65,30.91-25.03,7.01-.47,13.98,1.43,19.77,5.41-4.12,4.63-8.09,8.95-11.01,11.87-1.22,1.22-2.32,2.33-3.31,3.36-2.46-5.02-7.68-8.07-13.25-7.76-7.04-.51-13.16,4.78-13.67,11.82,0,.11-.01,.22-.02,.33,.97,7.11,7.27,12.26,14.43,11.79,4.1,.11,8.06-1.42,11.03-4.24,4.24,4.39,10.19,6.72,16.28,6.39,9.01-.25,16.11-7.76,15.86-16.77,0-.07,0-.15,0-.22-.22-6.11-2.35-12-6.08-16.84,4.96-5.65,9.62-11.09,12.47-14.44l-.05,4.82c-.02,2.07,1.64,3.76,3.71,3.78h0c2.05,0,3.72-1.65,3.74-3.71l.14-13.7c.01-1-.38-1.97-1.09-2.68h0Zm-56.02,50.15c-3.47,0-6.94-2.14-6.94-4.34,0-2.75,2.55-4.68,6.21-4.68,4.56,0,5.86,2,7.7,5.85-1.71,2.07-4.28,3.23-6.96,3.16h0Zm27.31,2.14c-4.07,.33-8.07-1.18-10.9-4.11l.45-.46c1.24-1.28,2.6-2.71,4.26-4.34,2.93-2.93,6.82-7.16,10.86-11.68,2.21,3.29,3.49,7.12,3.71,11.07,.4,4.86-3.22,9.13-8.08,9.53-.09,0-.18,.01-.28,.02l-.02-.03Z"/><path id="Path_410" class="cls-2" d="M59.03,198.09c-9.4-2.1-18-6.82-24.82-13.62-7.55-7.55-8.25-22.68-8.86-36.01,.34-8.83-1.13-17.63-4.34-25.86-2.59-4.87-6.38-8.99-11.01-11.99,4.63-2.99,8.43-7.1,11.03-11.95,3.21-9.57,4.44-19.7,3.62-29.76,.21-17.26,.47-38.74,9.55-47.82,6.73-6.86,15.34-11.59,24.74-13.6,2.05-.29,3.47-2.18,3.19-4.22-.29-2.05-2.18-3.47-4.22-3.19h0c-11.03,2.19-21.14,7.67-29,15.72-11.23,11.23-11.5,33.43-11.74,53.02,.64,8.83-.26,17.71-2.68,26.23-2.44,4.76-6.42,8.55-11.28,10.76-2.68,1.15-3.92,4.26-2.77,6.94,.53,1.24,1.53,2.23,2.77,2.77,4.87,2.21,8.84,6,11.28,10.76,2.52,7.25,3.67,14.9,3.38,22.57,.68,14.7,1.44,31.36,11.05,40.96,7.91,7.94,17.97,13.4,28.94,15.71,.2,.03,.39,.04,.59,.04,2.07-.02,3.73-1.71,3.71-3.77-.01-1.81-1.33-3.36-3.12-3.66v-.03Z"/><path id="Path_411" class="cls-2" d="M42.8,92.32c0,3.83,3.11,6.94,6.94,6.94,3.83,0,6.94-3.11,6.94-6.94,0-3.83-3.11-6.94-6.94-6.94s-6.94,3.11-6.94,6.94h0Z"/></g></g></g></g></g></svg>