<?xml version="1.0" encoding="UTF-8"?><svg id="Warstwa_2" xmlns="http://www.w3.org/2000/svg" viewBox="0 0 61.38 23.68"><defs><style>.cls-1{fill:#059f8e;}.cls-2{fill:#1d1d1b;}</style></defs><g id="Warstwa_1-2"><g id="Group_699" transform="translate(-513.462 -2447.436)"><g id="_027.1-22_Kozminski_portal_mymigrant.org_LOGO_final_kolor_pl" transform="translate(513.462 2447.436)"><g id="Group_697" transform="translate(23.58 1.49)"><path id="Path_397" class="cls-2" d="M24.49,6.49c0,.15-.12,.27-.27,.27h-.36c-.15,0-.27-.12-.27-.27V1.84c0-.15,.12-.27,.27-.27h.42c.14,0,.27,.07,.36,.18l1.64,2.24,1.56-2.24c.08-.11,.21-.18,.35-.18h.36c.15,0,.27,.12,.27,.27V6.49c0,.15-.12,.27-.27,.27h-.36c-.15,0-.27-.12-.27-.27V3.01l-1.36,1.91c-.08,.12-.21,.19-.35,.2-.14,0-.28-.08-.36-.2l-1.36-1.88v3.46h0Z"/><path id="Path_398" class="cls-2" d="M32.76,1.49c1.48,.01,2.67,1.22,2.66,2.7-.01,1.48-1.22,2.67-2.7,2.66-1.47-.01-2.66-1.21-2.66-2.68-.04-1.44,1.1-2.64,2.54-2.68,.05,0,.11,0,.16,0Zm0,4.5c.94,.03,1.72-.71,1.75-1.65,0-.06,0-.12,0-.17-.05-.96-.86-1.7-1.82-1.65-.96,.05-1.7,.86-1.65,1.82,.04,.93,.81,1.65,1.73,1.66Z"/><path id="Path_399" class="cls-2" d="M37.05,1.84c0-.15,.12-.27,.27-.27h.36c.15,0,.27,.12,.27,.27v3.69c.09,.62-.34,1.21-.96,1.3-.1,.01-.19,.02-.29,0-.24,0-.47-.05-.69-.14-.1-.03-.17-.13-.17-.24,0-.04,0-.08,.02-.11l.09-.25c.03-.11,.13-.18,.24-.17,.04,0,.07,0,.11,.01,.09,.03,.18,.04,.27,.04,.33,0,.47-.24,.47-.61V1.84h0Z"/><path id="Path_400" class="cls-2" d="M40.35,5.43l-.46,1.12c-.05,.12-.17,.21-.3,.21h-.27c-.16,0-.29-.12-.29-.28h0s0-.08,.02-.11l1.94-4.61c.05-.13,.17-.21,.31-.21h.36c.14,0,.26,.08,.31,.21l1.94,4.61s.02,.07,.02,.1c0,.16-.12,.29-.28,.29h-.33c-.13,0-.25-.08-.3-.21l-.46-1.12h-2.22Zm.35-.85h1.52l-.76-1.85-.76,1.85Z"/><path id="Path_401" class="cls-2" d="M24.49,13.9c0,.15-.12,.27-.27,.27h-.36c-.15,0-.27-.12-.27-.27v-4.64c0-.15,.12-.27,.27-.27h.42c.14,0,.27,.07,.36,.18l1.64,2.24,1.56-2.24c.08-.11,.21-.18,.35-.18h.36c.15,0,.27,.12,.27,.27v4.64c0,.15-.12,.27-.27,.27h-.36c-.15,0-.27-.12-.27-.27v-3.48l-1.36,1.91c-.08,.12-.21,.19-.35,.2-.14,0-.28-.08-.36-.2l-1.36-1.88v3.45Z"/><path id="Path_402" class="cls-2" d="M31.47,13.9c0,.15-.12,.27-.27,.27h-.36c-.15,0-.27-.12-.27-.27v-4.64c0-.15,.12-.27,.27-.27h.36c.15,0,.27,.12,.27,.27v4.64Z"/><path id="Path_403" class="cls-2" d="M35.54,13.4c.39,0,.76-.13,1.08-.36v-.82h-.98c-.15,0-.27-.12-.27-.27v-.3c0-.15,.12-.27,.27-.27h1.56c.15,0,.27,.12,.27,.27v1.68c0,.14-.06,.26-.17,.35-.52,.37-1.14,.57-1.77,.58-1.38,.12-2.59-.9-2.7-2.28-.01-.13-.01-.27,0-.4-.08-1.4,.98-2.59,2.38-2.67,.07,0,.14,0,.21,0,.55-.03,1.09,.11,1.56,.39,.06,.04,.1,.12,.1,.19,0,.05-.02,.11-.05,.16l-.16,.27c-.04,.08-.13,.13-.22,.13-.06,0-.12-.02-.17-.04-.29-.15-.61-.23-.94-.24-1.01,.05-1.79,.9-1.74,1.91,.04,.95,.81,1.71,1.76,1.74h0Z"/><path id="Path_404" class="cls-2" d="M40.33,12.23h-.64v1.67c0,.15-.12,.27-.27,.27h-.37c-.15,0-.27-.12-.27-.27v-4.64c0-.15,.12-.27,.27-.27,.45,0,1.19-.01,1.31-.01,1.42,0,1.88,.7,1.88,1.6,.03,.66-.37,1.27-1,1.48l1.29,1.69s.06,.1,.06,.16c0,.15-.12,.27-.27,.27h-.34c-.14,0-.27-.07-.36-.18l-1.3-1.76h0Zm-.04-.85c.53,0,.99-.27,.99-.8,0-.41-.22-.76-.96-.76-.17,0-.38,0-.62,.01v1.54h.59Z"/><path id="Path_405" class="cls-2" d="M44.51,12.85l-.46,1.12c-.05,.12-.17,.21-.3,.21h-.27c-.16,0-.29-.12-.29-.28h0s0-.08,.02-.11l1.94-4.61c.05-.13,.17-.21,.31-.21h.36c.14,0,.26,.08,.31,.21l1.94,4.61s.02,.07,.02,.1c0,.16-.12,.29-.28,.29h-.33c-.13,0-.25-.08-.3-.21l-.46-1.12h-2.22Zm.35-.85h1.52l-.76-1.85-.76,1.85Z"/><path id="Path_406" class="cls-2" d="M51.26,9.76c-.92-.01-1.68,.73-1.7,1.65,0,.06,0,.12,0,.17-.07,.94,.63,1.75,1.57,1.82,.08,0,.15,0,.23,0,.33,0,.65-.09,.93-.26,.05-.03,.11-.04,.17-.04,.1,0,.19,.04,.24,.13l.13,.21c.04,.05,.05,.11,.05,.17,0,.08-.03,.16-.1,.21-.44,.3-.97,.46-1.51,.45-1.48-.02-2.66-1.24-2.64-2.72,.02-1.44,1.18-2.6,2.62-2.64,.48,.01,.94,.14,1.36,.37,.09,.04,.14,.12,.15,.21,0,.05-.02,.1-.04,.15l-.16,.27c-.04,.08-.13,.14-.22,.14-.06,0-.11-.02-.16-.04-.28-.16-.6-.24-.92-.25h0Z"/><path id="Path_407" class="cls-2" d="M54.49,9.26c0-.15,.12-.27,.27-.27h.36c.15,0,.27,.12,.27,.27v3.69c.09,.62-.34,1.21-.96,1.3-.1,.01-.19,.02-.29,0-.24,0-.47-.05-.69-.14-.1-.03-.17-.13-.17-.24,0-.04,0-.08,.02-.11l.09-.25c.03-.11,.13-.18,.24-.17,.04,0,.07,0,.11,.01,.09,.03,.18,.04,.27,.04,.33,0,.47-.24,.47-.61v-3.54h0Z"/><path id="Path_408" class="cls-2" d="M57.79,12.85l-.46,1.12c-.05,.12-.17,.21-.3,.21h-.27c-.16,0-.29-.12-.29-.28h0s0-.08,.02-.11l1.94-4.61c.05-.13,.17-.21,.31-.21h.36c.14,0,.26,.08,.31,.21l1.94,4.61s.02,.07,.02,.1c0,.16-.12,.29-.28,.29h-.33c-.13,0-.25-.08-.3-.21l-.46-1.12h-2.22Zm.35-.85h1.52l-.76-1.85-.76,1.85Z"/></g><g id="Group_698" transform="translate(0 0)"><path id="Path_409" class="cls-1" d="M16.8,.38c-.08-.08-.19-.13-.31-.13h-1.64c-.24,0-.43,.2-.43,.44,0,.24,.19,.43,.43,.43h.56c-.32,.37-.84,.99-1.41,1.63-.83-.6-1.84-.9-2.86-.84-3.25,.04-4.41,1.96-4.41,3.75-.04,.87,.27,1.72,.88,2.34,.97,.79,2.21,1.16,3.45,1.02,.75,.54,1.43,1.16,2.05,1.85,.08,.09,.19,.13,.31,.13,.24,0,.43-.19,.43-.43v-1.99c0-.24-.19-.43-.43-.43-.24,0-.43,.19-.43,.43v.93c-1.41-1.38-1.76-1.37-1.91-1.36-1.02,.13-2.05-.15-2.87-.78-.44-.46-.66-1.09-.62-1.72,0-.67,.26-2.84,3.56-2.88,.81-.05,1.61,.17,2.28,.62-.48,.53-.93,1.03-1.27,1.37-.14,.14-.27,.27-.38,.39-.28-.58-.88-.93-1.53-.89-.81-.06-1.52,.55-1.57,1.36v.04c.11,.82,.84,1.41,1.66,1.36,.47,.01,.93-.16,1.27-.49,.49,.51,1.17,.77,1.88,.74,1.04-.03,1.86-.89,1.83-1.93v-.03c-.03-.7-.27-1.38-.7-1.94,.57-.65,1.11-1.28,1.44-1.66v.56c0,.24,.18,.43,.42,.44h0c.24,0,.43-.19,.43-.43l.02-1.58c0-.12-.04-.23-.13-.31h0Zm-6.45,5.78c-.4,0-.8-.25-.8-.5,0-.32,.29-.54,.71-.54,.52,0,.68,.23,.89,.67-.2,.24-.49,.37-.8,.36h0Zm3.15,.25c-.47,.04-.93-.14-1.26-.47l.05-.05c.14-.15,.3-.31,.49-.5,.34-.34,.79-.83,1.25-1.35,.25,.38,.4,.82,.43,1.28,.05,.56-.37,1.05-.93,1.1h-.03Z"/><path id="Path_410" class="cls-1" d="M6.8,22.82c-1.08-.24-2.07-.79-2.86-1.57-.87-.87-.95-2.61-1.02-4.15,.04-1.02-.13-2.03-.5-2.98-.3-.56-.73-1.04-1.27-1.38,.53-.34,.97-.82,1.27-1.38,.37-1.1,.51-2.27,.42-3.43,.02-1.99,.05-4.46,1.1-5.51,.78-.79,1.77-1.34,2.85-1.57,.24-.03,.4-.25,.37-.49-.03-.24-.25-.4-.49-.37h0c-1.27,.25-2.44,.88-3.34,1.81-1.29,1.29-1.32,3.85-1.35,6.11,.07,1.02-.03,2.04-.31,3.02-.28,.55-.74,.99-1.3,1.24-.31,.13-.45,.49-.32,.8,.06,.14,.18,.26,.32,.32,.56,.25,1.02,.69,1.3,1.24,.29,.83,.42,1.72,.39,2.6,.08,1.69,.17,3.61,1.27,4.72,.91,.92,2.07,1.54,3.33,1.81,.02,0,.05,0,.07,0,.24,0,.43-.2,.43-.43,0-.21-.15-.39-.36-.42h0Z"/><path id="Path_411" class="cls-1" d="M4.93,10.63c0,.44,.36,.8,.8,.8,.44,0,.8-.36,.8-.8,0-.44-.36-.8-.8-.8s-.8,.36-.8,.8h0Z"/></g></g></g></g></svg>