<svg width="24" height="20" viewBox="0 0 24 20" fill="none" xmlns="http://www.w3.org/2000/svg">
<path d="M23 1.03825C22.0424 1.71373 20.9821 2.23036 19.86 2.56825C19.2577 1.87576 18.4573 1.38495 17.567 1.16218C16.6767 0.939414 15.7395 0.99545 14.8821 1.32271C14.0247 1.64997 13.2884 2.23266 12.773 2.99197C12.2575 3.75129 11.9877 4.65059 12 5.56825V6.56825C10.2426 6.61382 8.50127 6.22407 6.93101 5.4337C5.36074 4.64333 4.01032 3.47689 3 2.03825C3 2.03825 -1 11.0383 8 15.0383C5.94053 16.4362 3.48716 17.1372 1 17.0383C10 22.0383 21 17.0383 21 5.53825C20.9991 5.25971 20.9723 4.98185 20.92 4.70825C21.9406 3.70175 22.6608 2.43097 23 1.03825V1.03825Z" stroke="black" stroke-width="2" stroke-linecap="round" stroke-linejoin="round"/>
</svg>
