<svg xmlns="http://www.w3.org/2000/svg" width="61.377" height="23.679" viewBox="0 0 61.377 23.679">
  <g id="Group_699" data-name="Group 699" transform="translate(-513.462 -2447.436)">
    <g id="_027.1-22_Kozminski_portal_mymigrant.org_LOGO_final_kolor_pl" data-name="027.1-22_Kozminski_portal_mymigrant.org_LOGO_final_kolor_pl" transform="translate(513.462 2447.436)">
      <g id="Group_697" data-name="Group 697" transform="translate(23.58 1.49)">
        <path id="Path_397" data-name="Path 397" d="M367.852,79.486a.278.278,0,0,1-.274.274h-.363a.278.278,0,0,1-.274-.274V74.844a.278.278,0,0,1,.274-.274h.423a.461.461,0,0,1,.356.185l1.639,2.239,1.564-2.239a.435.435,0,0,1,.348-.185h.363a.278.278,0,0,1,.274.274v4.642a.278.278,0,0,1-.274.274h-.356a.278.278,0,0,1-.274-.274V76.008l-1.357,1.906a.435.435,0,0,1-.348.2.447.447,0,0,1-.356-.2l-1.364-1.883v3.455Z" transform="translate(-366.94 -74.487)" fill="#1d1d1b"/>
        <path id="Path_398" data-name="Path 398" d="M444.8,73.61a2.678,2.678,0,1,1-2.7,2.677A2.609,2.609,0,0,1,444.8,73.61Zm0,4.5a1.7,1.7,0,0,0,1.743-1.825,1.741,1.741,0,1,0-1.743,1.825Z" transform="translate(-435.619 -73.61)" fill="#1d1d1b"/>
        <path id="Path_399" data-name="Path 399" d="M510.372,74.834a.278.278,0,0,1,.274-.274h.363a.278.278,0,0,1,.274.274v3.693a1.143,1.143,0,0,1-1.253,1.306,1.765,1.765,0,0,1-.69-.141.247.247,0,0,1-.171-.237.3.3,0,0,1,.022-.111l.089-.252a.233.233,0,0,1,.245-.171.614.614,0,0,1,.111.015,1.172,1.172,0,0,0,.267.045c.334,0,.467-.237.467-.608V74.836Z" transform="translate(-496.905 -74.478)" fill="#1d1d1b"/>
        <path id="Path_400" data-name="Path 400" d="M547.39,78.278l-.46,1.12a.323.323,0,0,1-.3.208h-.267a.284.284,0,0,1-.289-.289.3.3,0,0,1,.022-.1l1.943-4.606a.339.339,0,0,1,.311-.208h.356a.339.339,0,0,1,.311.208l1.943,4.606a.3.3,0,0,1,.022.1.285.285,0,0,1-.29.289h-.319a.323.323,0,0,1-.3-.208l-.46-1.12h-2.217Zm.348-.853h1.52l-.756-1.846Z" transform="translate(-530.623 -74.332)" fill="#1d1d1b"/>
        <path id="Path_401" data-name="Path 401" d="M367.852,165.486a.278.278,0,0,1-.274.274h-.363a.278.278,0,0,1-.274-.274v-4.642a.278.278,0,0,1,.274-.274h.423a.461.461,0,0,1,.356.185l1.639,2.239,1.564-2.239a.435.435,0,0,1,.348-.185h.363a.278.278,0,0,1,.274.274v4.642a.278.278,0,0,1-.274.274h-.356a.278.278,0,0,1-.274-.274v-3.478l-1.357,1.906a.435.435,0,0,1-.348.2.448.448,0,0,1-.356-.2l-1.364-1.883Z" transform="translate(-366.94 -153.071)" fill="#1d1d1b"/>
        <path id="Path_402" data-name="Path 402" d="M448.782,165.486a.278.278,0,0,1-.274.274h-.363a.278.278,0,0,1-.274-.274v-4.642a.278.278,0,0,1,.274-.274h.363a.278.278,0,0,1,.274.274Z" transform="translate(-440.891 -153.071)" fill="#1d1d1b"/>
        <path id="Path_403" data-name="Path 403" d="M476.812,164.1a1.805,1.805,0,0,0,1.075-.356v-.816h-.979a.278.278,0,0,1-.274-.274v-.3a.278.278,0,0,1,.274-.274h1.557a.278.278,0,0,1,.274.274v1.676a.441.441,0,0,1-.171.348,3.1,3.1,0,0,1-1.772.579,2.5,2.5,0,0,1-2.707-2.677,2.531,2.531,0,0,1,2.588-2.677,2.7,2.7,0,0,1,1.557.393.226.226,0,0,1,.1.193.331.331,0,0,1-.045.156l-.163.267a.246.246,0,0,1-.223.126.385.385,0,0,1-.171-.045,2.041,2.041,0,0,0-.942-.237,1.826,1.826,0,0,0,.022,3.649Z" transform="translate(-464.85 -152.185)" fill="#1d1d1b"/>
        <path id="Path_404" data-name="Path 404" d="M544.78,163.662h-.638v1.669a.278.278,0,0,1-.274.274H543.5a.278.278,0,0,1-.274-.274v-4.642a.274.274,0,0,1,.274-.274c.445-.008,1.187-.015,1.306-.015,1.417,0,1.883.7,1.883,1.6a1.493,1.493,0,0,1-1,1.483l1.29,1.691a.245.245,0,0,1,.06.163.266.266,0,0,1-.267.267h-.341a.461.461,0,0,1-.356-.185l-1.3-1.757Zm-.045-.853c.527,0,.993-.267.993-.8,0-.408-.223-.756-.964-.756-.171,0-.379.008-.623.015v1.543Z" transform="translate(-528.028 -152.916)" fill="#1d1d1b"/>
        <path id="Path_405" data-name="Path 405" d="M595.63,164.278l-.46,1.12a.323.323,0,0,1-.3.208H594.6a.284.284,0,0,1-.289-.289.3.3,0,0,1,.022-.1l1.943-4.606a.339.339,0,0,1,.311-.208h.356a.339.339,0,0,1,.311.208l1.943,4.606a.3.3,0,0,1,.022.1.285.285,0,0,1-.29.289h-.319a.323.323,0,0,1-.3-.208l-.46-1.12h-2.217Zm.348-.853h1.52l-.756-1.846Z" transform="translate(-574.703 -152.916)" fill="#1d1d1b"/>
        <path id="Path_406" data-name="Path 406" d="M659.754,160.463a1.674,1.674,0,0,0-1.691,1.825,1.7,1.7,0,0,0,1.794,1.825,1.871,1.871,0,0,0,.935-.26.4.4,0,0,1,.171-.045.26.26,0,0,1,.237.126l.134.208a.288.288,0,0,1,.052.171.251.251,0,0,1-.1.208,2.571,2.571,0,0,1-1.506.445,2.678,2.678,0,0,1-.021-5.355,2.954,2.954,0,0,1,1.357.371.242.242,0,0,1,.148.215.3.3,0,0,1-.045.148l-.155.274a.254.254,0,0,1-.223.141.332.332,0,0,1-.163-.045,1.961,1.961,0,0,0-.919-.252Z" transform="translate(-632.079 -152.194)" fill="#1d1d1b"/>
        <path id="Path_407" data-name="Path 407" d="M712.642,160.834a.278.278,0,0,1,.274-.274h.363a.278.278,0,0,1,.274.274v3.693a1.143,1.143,0,0,1-1.253,1.306,1.766,1.766,0,0,1-.69-.141.247.247,0,0,1-.171-.237.3.3,0,0,1,.022-.111l.089-.252a.233.233,0,0,1,.245-.171.613.613,0,0,1,.111.015,1.172,1.172,0,0,0,.267.045c.334,0,.467-.237.467-.608v-3.537Z" transform="translate(-681.733 -153.062)" fill="#1d1d1b"/>
        <path id="Path_408" data-name="Path 408" d="M749.651,164.278l-.46,1.12a.323.323,0,0,1-.3.208h-.267a.285.285,0,0,1-.29-.289.3.3,0,0,1,.022-.1l1.943-4.606a.339.339,0,0,1,.311-.208h.356a.339.339,0,0,1,.311.208l1.943,4.606a.3.3,0,0,1,.022.1.285.285,0,0,1-.289.289h-.319a.323.323,0,0,1-.3-.208l-.46-1.12H749.65Zm.348-.853h1.52l-.756-1.846Z" transform="translate(-715.442 -152.916)" fill="#1d1d1b"/>
      </g>
      <g id="Group_698" data-name="Group 698" transform="translate(0 0)">
        <path id="Path_409" data-name="Path 409" d="M181.594,59.467a.445.445,0,0,0-.308-.127l-1.638.009a.431.431,0,0,0,0,.862h0l.556,0c-.316.372-.843.987-1.406,1.63A4.426,4.426,0,0,0,175.942,61c-3.253.043-4.412,1.963-4.412,3.747a3.133,3.133,0,0,0,.877,2.34,4.677,4.677,0,0,0,3.448,1.024,13.193,13.193,0,0,1,2.052,1.849.43.43,0,0,0,.312.133.431.431,0,0,0,.431-.431V67.677a.431.431,0,0,0-.862,0v.935c-1.41-1.376-1.762-1.368-1.907-1.363a3.921,3.921,0,0,1-2.872-.779,2.28,2.28,0,0,1-.617-1.723c0-.666.257-2.84,3.561-2.884a3.6,3.6,0,0,1,2.278.623c-.475.533-.932,1.031-1.268,1.368q-.21.21-.381.387a1.6,1.6,0,0,0-1.527-.894,1.472,1.472,0,0,0-1.577,1.4,1.574,1.574,0,0,0,1.663,1.358,1.776,1.776,0,0,0,1.271-.489,2.423,2.423,0,0,0,1.876.736,1.88,1.88,0,0,0,1.826-1.957,3.381,3.381,0,0,0-.7-1.94c.571-.651,1.108-1.278,1.437-1.664l-.006.555a.431.431,0,0,0,.427.435h0a.431.431,0,0,0,.431-.427l.016-1.579a.431.431,0,0,0-.126-.309Zm-6.454,5.777c-.4,0-.8-.246-.8-.5,0-.317.294-.539.715-.539.525,0,.675.231.887.674A1.007,1.007,0,0,1,175.14,65.243Zm3.147.246a1.567,1.567,0,0,1-1.256-.474l.052-.053c.143-.147.3-.312.491-.5.338-.338.786-.825,1.251-1.346a2.538,2.538,0,0,1,.427,1.276,1.018,1.018,0,0,1-.963,1.1Z" transform="translate(-164.8 -59.081)" fill="#059f8e"/>
        <path id="Path_410" data-name="Path 410" d="M100.288,79.155a5.86,5.86,0,0,1-2.86-1.569c-.87-.87-.95-2.613-1.021-4.149a7.412,7.412,0,0,0-.5-2.979,3.74,3.74,0,0,0-1.268-1.381A3.747,3.747,0,0,0,95.91,67.7a8.577,8.577,0,0,0,.417-3.429c.024-1.989.054-4.463,1.1-5.51a5.643,5.643,0,0,1,2.851-1.567.431.431,0,1,0-.119-.854,6.415,6.415,0,0,0-3.341,1.811c-1.294,1.294-1.325,3.852-1.353,6.109a8.744,8.744,0,0,1-.309,3.022,2.729,2.729,0,0,1-1.3,1.24.609.609,0,0,0,0,1.119,2.729,2.729,0,0,1,1.3,1.24,7.1,7.1,0,0,1,.389,2.6c.078,1.694.166,3.613,1.273,4.719a6.632,6.632,0,0,0,3.334,1.81.462.462,0,0,0,.068.005.431.431,0,0,0,.068-.856Z" transform="translate(-93.49 -56.332)" fill="#059f8e"/>
        <path id="Path_411" data-name="Path 411" d="M150.64,171.246a.8.8,0,1,0,.8-.8A.8.8,0,0,0,150.64,171.246Z" transform="translate(-145.712 -160.609)" fill="#059f8e"/>
      </g>
    </g>
  </g>
</svg>
