<svg xmlns="http://www.w3.org/2000/svg" width="56" height="22.604" viewBox="0 0 56 22.604">
  <g id="_027.1-22_Kozminski_portal_mymigrant.org_LOGO_final_kolor_ukr" data-name="027.1-22_Kozminski_portal_mymigrant.org_LOGO_final_kolor_ukr" transform="translate(-109.23 -56.332)">
    <g id="Group_702" data-name="Group 702" transform="translate(131.74 57.776)">
      <path id="Path_425" data-name="Path 425" d="M383.55,79.523a.266.266,0,0,1-.262.262h-.347a.266.266,0,0,1-.262-.262V75.092a.266.266,0,0,1,.262-.262h.4a.44.44,0,0,1,.34.177l1.565,2.138,1.493-2.138a.416.416,0,0,1,.333-.177h.346a.266.266,0,0,1,.262.262v4.431a.266.266,0,0,1-.262.262h-.34a.266.266,0,0,1-.262-.262V76.2l-1.3,1.819a.415.415,0,0,1-.333.191.427.427,0,0,1-.34-.191l-1.3-1.8v3.3Z" transform="translate(-382.68 -74.751)" fill="#1d1d1b"/>
      <path id="Path_426" data-name="Path 426" d="M460.417,73.87a2.556,2.556,0,1,1-2.576,2.556A2.49,2.49,0,0,1,460.417,73.87Zm0,4.3a1.623,1.623,0,0,0,1.664-1.742,1.662,1.662,0,1,0-1.664,1.742Z" transform="translate(-451.653 -73.87)" fill="#1d1d1b"/>
      <path id="Path_427" data-name="Path 427" d="M533.428,79.284a.266.266,0,0,1-.262.262h-.34a.266.266,0,0,1-.262-.262V77.833h-.715l-.991,1.529a.4.4,0,0,1-.333.184h-.291a.255.255,0,0,1-.212-.4l1.005-1.494a1.51,1.51,0,0,1-.871-1.373c0-.913.594-1.713,2.039-1.713.24,0,.659.014.97.021a.257.257,0,0,1,.262.262v4.431Zm-.864-3.88c-.12-.007-.4-.021-.545-.021a.847.847,0,0,0-.942.842.816.816,0,0,0,.694.793h.793V75.4Z" transform="translate(-517.855 -74.512)" fill="#1d1d1b"/>
      <path id="Path_428" data-name="Path 428" d="M383.55,165.523a.266.266,0,0,1-.262.262h-.347a.266.266,0,0,1-.262-.262v-4.431a.266.266,0,0,1,.262-.262h.4a.44.44,0,0,1,.34.177l1.565,2.138,1.493-2.138a.416.416,0,0,1,.333-.177h.346a.266.266,0,0,1,.262.262v4.431a.266.266,0,0,1-.262.262h-.34a.266.266,0,0,1-.262-.262V162.2l-1.3,1.819a.415.415,0,0,1-.333.191.427.427,0,0,1-.34-.191l-1.3-1.8v3.3Z" transform="translate(-382.68 -153.672)" fill="#1d1d1b"/>
      <path id="Path_429" data-name="Path 429" d="M464.48,165.523a.266.266,0,0,1-.262.262h-.347a.266.266,0,0,1-.262-.262v-4.431a.266.266,0,0,1,.262-.262h.347a.266.266,0,0,1,.262.262Z" transform="translate(-456.948 -153.672)" fill="#1d1d1b"/>
      <path id="Path_430" data-name="Path 430" d="M495.17,165.523a.266.266,0,0,1-.262.262h-.347a.266.266,0,0,1-.262-.262v-4.431a.266.266,0,0,1,.262-.262h2.273a.266.266,0,0,1,.262.262v.291a.266.266,0,0,1-.262.262h-1.664v3.88Z" transform="translate(-485.112 -153.672)" fill="#1d1d1b"/>
      <path id="Path_431" data-name="Path 431" d="M543.386,162.252a1.638,1.638,0,0,1-1.813,1.607c-.148,0-.431,0-.644-.021v1.529a.266.266,0,0,1-.262.262h-.347a.266.266,0,0,1-.262-.262v-4.431a.261.261,0,0,1,.262-.262c.354-.007.878-.014,1.147-.014,1.458,0,1.918.779,1.918,1.593Zm-2.456.757a6.052,6.052,0,0,0,.616.035c.517,0,.92-.248.92-.8,0-.517-.319-.771-.913-.771-.177,0-.389.007-.623.014Z" transform="translate(-527.105 -153.516)" fill="#1d1d1b"/>
      <path id="Path_432" data-name="Path 432" d="M584.121,164.361l-.439,1.069a.308.308,0,0,1-.291.2h-.255a.272.272,0,0,1-.277-.276.283.283,0,0,1,.021-.1l1.855-4.4a.324.324,0,0,1,.3-.2h.34a.324.324,0,0,1,.3.2l1.855,4.4a.283.283,0,0,1,.021.1.272.272,0,0,1-.276.276h-.3a.308.308,0,0,1-.291-.2l-.439-1.069H584.12Zm.333-.814H585.9l-.722-1.762Z" transform="translate(-566.382 -153.516)" fill="#1d1d1b"/>
      <path id="Path_433" data-name="Path 433" d="M656.225,166.67a.266.266,0,0,1-.262-.262v-.623h-3.512a.266.266,0,0,1-.262-.262v-4.431a.266.266,0,0,1,.262-.262h.346a.266.266,0,0,1,.262.262v3.88h2.173v-3.88a.266.266,0,0,1,.262-.262h.347a.266.266,0,0,1,.262.262v3.88h.411a.266.266,0,0,1,.262.262v1.175a.266.266,0,0,1-.262.262h-.291Z" transform="translate(-630.005 -153.672)" fill="#1d1d1b"/>
      <path id="Path_434" data-name="Path 434" d="M722.73,165.523a.266.266,0,0,1-.262.262h-.347a.266.266,0,0,1-.262-.262v-4.431a.266.266,0,0,1,.262-.262h.347a.266.266,0,0,1,.262.262Z" transform="translate(-693.94 -153.672)" fill="#1d1d1b"/>
      <path id="Path_435" data-name="Path 435" d="M751.088,165.284a.266.266,0,0,1-.262.262h-.34a.266.266,0,0,1-.262-.262v-1.451h-.715l-.991,1.529a.4.4,0,0,1-.333.184H747.9a.255.255,0,0,1-.212-.4l1.005-1.494a1.51,1.51,0,0,1-.871-1.373c0-.913.594-1.713,2.039-1.713.24,0,.659.014.97.021a.257.257,0,0,1,.262.262v4.431Zm-.863-3.88c-.12-.007-.4-.021-.545-.021a.847.847,0,0,0-.942.842.816.816,0,0,0,.694.793h.793V161.4Z" transform="translate(-717.598 -153.433)" fill="#1d1d1b"/>
    </g>
    <g id="Group_703" data-name="Group 703" transform="translate(109.23 56.332)">
      <path id="Path_436" data-name="Path 436" d="M196.877,59.461a.413.413,0,0,0-.294-.121l-1.564.01a.412.412,0,0,0,0,.823h0l.531,0c-.3.355-.805.943-1.342,1.556a4.224,4.224,0,0,0-2.732-.8c-3.1.041-4.211,1.874-4.211,3.577a2.991,2.991,0,0,0,.837,2.234,4.455,4.455,0,0,0,3.292.978,12.591,12.591,0,0,1,1.959,1.765.412.412,0,0,0,.71-.285V67.3a.412.412,0,1,0-.823,0v.892c-1.346-1.313-1.683-1.306-1.821-1.3a3.74,3.74,0,0,1-2.741-.743,2.176,2.176,0,0,1-.589-1.645c0-.635.245-2.712,3.4-2.754a3.436,3.436,0,0,1,2.175.6c-.453.508-.89.985-1.211,1.306q-.2.2-.364.37a1.528,1.528,0,0,0-1.458-.854A1.405,1.405,0,0,0,189.13,64.5a1.5,1.5,0,0,0,1.588,1.3,1.7,1.7,0,0,0,1.213-.467,2.313,2.313,0,0,0,1.79.7,1.8,1.8,0,0,0,1.743-1.869,3.227,3.227,0,0,0-.67-1.852c.545-.622,1.058-1.22,1.371-1.589l-.006.53a.412.412,0,0,0,.407.416h0a.411.411,0,0,0,.412-.407L197,59.756a.412.412,0,0,0-.12-.295Zm-6.161,5.514c-.386,0-.765-.235-.765-.473,0-.3.281-.514.682-.514.5,0,.645.221.847.644A.962.962,0,0,1,190.716,64.975Zm3,.235a1.5,1.5,0,0,1-1.2-.452l.049-.051c.137-.14.291-.3.468-.476.323-.323.751-.788,1.194-1.285a2.423,2.423,0,0,1,.407,1.218A.972.972,0,0,1,193.72,65.21Z" transform="translate(-180.846 -59.092)" fill="#059f8e"/>
      <path id="Path_437" data-name="Path 437" d="M115.719,78.119a5.594,5.594,0,0,1-2.73-1.5c-.831-.831-.907-2.494-.975-3.961a7.075,7.075,0,0,0-.474-2.844,3.57,3.57,0,0,0-1.211-1.318,3.577,3.577,0,0,0,1.211-1.318,8.188,8.188,0,0,0,.4-3.274c.023-1.9.052-4.261,1.05-5.26a5.387,5.387,0,0,1,2.721-1.5.411.411,0,1,0-.114-.815,6.123,6.123,0,0,0-3.19,1.729c-1.236,1.236-1.265,3.677-1.292,5.831a8.347,8.347,0,0,1-.295,2.884,2.6,2.6,0,0,1-1.238,1.184.581.581,0,0,0,0,1.068,2.6,2.6,0,0,1,1.238,1.184,6.78,6.78,0,0,1,.371,2.482c.075,1.617.159,3.449,1.215,4.505a6.331,6.331,0,0,0,3.182,1.728.44.44,0,0,0,.065,0,.411.411,0,0,0,.065-.817Z" transform="translate(-109.23 -56.332)" fill="#059f8e"/>
      <circle id="Ellipse_38" data-name="Ellipse 38" cx="0.76" cy="0.76" r="0.76" transform="translate(4.471 10.565) rotate(-67.5)" fill="#059f8e"/>
    </g>
  </g>
</svg>
