<svg xmlns="http://www.w3.org/2000/svg" width="64.098" height="22.731" viewBox="0 0 64.098 22.731">
  <g id="_027.1-22_Kozminski_portal_mymigrant.org_LOGO_final_kolor_en" data-name="027.1-22_Kozminski_portal_mymigrant.org_LOGO_final_kolor_en" transform="translate(-62.23 -56.334)">
    <g id="Group_700" data-name="Group 700" transform="translate(84.867 57.864)">
      <path id="Path_412" data-name="Path 412" d="M336.555,79.539a.267.267,0,0,1-.263.263h-.348a.267.267,0,0,1-.263-.263V75.083a.267.267,0,0,1,.263-.263h.406a.443.443,0,0,1,.342.178l1.574,2.15,1.5-2.15a.418.418,0,0,1,.334-.178h.349a.267.267,0,0,1,.263.263v4.456a.267.267,0,0,1-.263.263h-.342a.267.267,0,0,1-.263-.263V76.2l-1.3,1.829a.417.417,0,0,1-.334.192.429.429,0,0,1-.342-.192l-1.31-1.808V79.54Z" transform="translate(-335.68 -74.82)" fill="#1d1d1b"/>
      <path id="Path_413" data-name="Path 413" d="M411.408,76.906l1.117-1.9a.373.373,0,0,1,.32-.185h.257a.264.264,0,0,1,.263.271.241.241,0,0,1-.036.135l-1.523,2.5V79.54a.267.267,0,0,1-.263.263H411.2a.267.267,0,0,1-.263-.263V77.725l-1.509-2.5a.261.261,0,0,1-.043-.142.269.269,0,0,1,.271-.263h.306a.394.394,0,0,1,.328.185l1.125,1.9Z" transform="translate(-403.279 -74.82)" fill="#1d1d1b"/>
      <path id="Path_414" data-name="Path 414" d="M336.555,165.539a.267.267,0,0,1-.263.263h-.348a.267.267,0,0,1-.263-.263v-4.456a.267.267,0,0,1,.263-.263h.406a.443.443,0,0,1,.342.178l1.574,2.15,1.5-2.15a.418.418,0,0,1,.334-.178h.349a.267.267,0,0,1,.263.263v4.456a.267.267,0,0,1-.263.263h-.342a.267.267,0,0,1-.263-.263V162.2l-1.3,1.829a.417.417,0,0,1-.334.192.429.429,0,0,1-.342-.192l-1.31-1.808v3.318Z" transform="translate(-335.68 -153.701)" fill="#1d1d1b"/>
      <path id="Path_415" data-name="Path 415" d="M417.485,165.539a.267.267,0,0,1-.263.263h-.349a.267.267,0,0,1-.263-.263v-4.456a.267.267,0,0,1,.263-.263h.349a.267.267,0,0,1,.263.263Z" transform="translate(-409.911 -153.701)" fill="#1d1d1b"/>
      <path id="Path_416" data-name="Path 416" d="M445.443,164.191a1.733,1.733,0,0,0,1.032-.342v-.783h-.94a.267.267,0,0,1-.263-.263v-.292a.267.267,0,0,1,.263-.263h1.5a.267.267,0,0,1,.263.263v1.609a.424.424,0,0,1-.164.334,2.976,2.976,0,0,1-1.7.555,2.4,2.4,0,0,1-2.6-2.57,2.429,2.429,0,0,1,2.484-2.57,2.591,2.591,0,0,1,1.495.378.216.216,0,0,1,.093.185.317.317,0,0,1-.043.15l-.156.257a.236.236,0,0,1-.214.121.369.369,0,0,1-.164-.043,1.959,1.959,0,0,0-.9-.228,1.753,1.753,0,0,0,.022,3.5Z" transform="translate(-433.96 -152.829)" fill="#1d1d1b"/>
      <path id="Path_417" data-name="Path 417" d="M513.458,163.782h-.613v1.6a.267.267,0,0,1-.263.263h-.349a.267.267,0,0,1-.263-.263v-4.456a.263.263,0,0,1,.263-.263c.427-.007,1.139-.014,1.253-.014,1.36,0,1.808.676,1.808,1.538a1.433,1.433,0,0,1-.961,1.424l1.238,1.623a.235.235,0,0,1,.057.156.256.256,0,0,1-.257.257h-.328a.443.443,0,0,1-.342-.178l-1.246-1.687Zm-.043-.819c.506,0,.954-.257.954-.769,0-.392-.214-.726-.925-.726-.164,0-.363.007-.6.014v1.481Z" transform="translate(-497.376 -153.545)" fill="#1d1d1b"/>
      <path id="Path_418" data-name="Path 418" d="M564.317,164.373l-.441,1.075a.31.31,0,0,1-.292.2h-.257a.273.273,0,0,1-.277-.277.284.284,0,0,1,.021-.1l1.865-4.421a.325.325,0,0,1,.3-.2h.342a.326.326,0,0,1,.3.2l1.865,4.421a.286.286,0,0,1,.021.1.273.273,0,0,1-.278.277h-.306a.31.31,0,0,1-.292-.2l-.441-1.075h-2.128Zm.334-.819h1.46l-.726-1.772Z" transform="translate(-544.228 -153.545)" fill="#1d1d1b"/>
      <path id="Path_419" data-name="Path 419" d="M621.439,165.8a.267.267,0,0,1-.263-.263v-3.9h-1.353a.267.267,0,0,1-.263-.263v-.292a.267.267,0,0,1,.263-.263H623.4a.267.267,0,0,1,.263.263v.292a.267.267,0,0,1-.263.263h-1.353v3.9a.267.267,0,0,1-.263.263h-.349Z" transform="translate(-596.06 -153.701)" fill="#1d1d1b"/>
      <path id="Path_420" data-name="Path 420" d="M682.7,165.539a.267.267,0,0,1-.263.263h-.349a.267.267,0,0,1-.263-.263v-4.456a.267.267,0,0,1,.263-.263h.349a.267.267,0,0,1,.263.263Z" transform="translate(-653.175 -153.701)" fill="#1d1d1b"/>
      <path id="Path_421" data-name="Path 421" d="M710.641,159.87a2.57,2.57,0,1,1-2.591,2.57A2.5,2.5,0,0,1,710.641,159.87Zm0,4.321a1.632,1.632,0,0,0,1.673-1.752,1.671,1.671,0,1,0-1.673,1.752Z" transform="translate(-677.225 -152.829)" fill="#1d1d1b"/>
      <path id="Path_422" data-name="Path 422" d="M789.094,160.82a.267.267,0,0,1,.263.263v4.456a.267.267,0,0,1-.263.263h-.249a.4.4,0,0,1-.32-.171l-2.606-3.282v3.19a.267.267,0,0,1-.263.263h-.292a.267.267,0,0,1-.263-.263v-4.456a.267.267,0,0,1,.263-.263h.249a.4.4,0,0,1,.32.171l2.606,3.3v-3.2a.267.267,0,0,1,.263-.263Z" transform="translate(-747.896 -153.701)" fill="#1d1d1b"/>
    </g>
    <g id="Group_701" data-name="Group 701" transform="translate(62.23 56.334)">
      <path id="Path_423" data-name="Path 423" d="M149.931,59.451a.412.412,0,0,0-.3-.122l-1.573.01a.414.414,0,0,0,0,.828h0l.534,0c-.3.357-.81.948-1.349,1.565a4.249,4.249,0,0,0-2.747-.8c-3.123.041-4.235,1.885-4.235,3.6a3.008,3.008,0,0,0,.842,2.247,4.486,4.486,0,0,0,3.31.983,12.666,12.666,0,0,1,1.97,1.775.413.413,0,0,0,.3.127.414.414,0,0,0,.414-.414V67.334a.414.414,0,0,0-.828,0v.9c-1.353-1.321-1.691-1.314-1.831-1.309a3.765,3.765,0,0,1-2.757-.748,2.188,2.188,0,0,1-.592-1.654c0-.639.247-2.727,3.418-2.769a3.462,3.462,0,0,1,2.187.6c-.455.511-.895.99-1.218,1.313q-.2.2-.366.372a1.536,1.536,0,0,0-1.466-.858,1.413,1.413,0,0,0-1.514,1.345,1.511,1.511,0,0,0,1.6,1.3,1.705,1.705,0,0,0,1.22-.469,2.326,2.326,0,0,0,1.8.706,1.8,1.8,0,0,0,1.752-1.879,3.245,3.245,0,0,0-.674-1.863c.548-.625,1.064-1.227,1.379-1.6l-.006.533a.414.414,0,0,0,.41.418h0a.414.414,0,0,0,.414-.41l.016-1.516a.414.414,0,0,0-.121-.3ZM143.735,65c-.388,0-.769-.236-.769-.476,0-.3.282-.517.686-.517.5,0,.648.222.852.647A.967.967,0,0,1,143.735,65Zm3.022.236a1.5,1.5,0,0,1-1.206-.455l.05-.051c.137-.141.292-.3.47-.478.324-.324.755-.792,1.2-1.292a2.437,2.437,0,0,1,.41,1.225.977.977,0,0,1-.925,1.051Z" transform="translate(-133.81 -59.081)" fill="#059f8e"/>
      <path id="Path_424" data-name="Path 424" d="M68.756,78.243a5.625,5.625,0,0,1-2.746-1.506c-.835-.835-.912-2.508-.98-3.983a7.115,7.115,0,0,0-.477-2.86,3.59,3.59,0,0,0-1.218-1.325,3.6,3.6,0,0,0,1.218-1.325,8.234,8.234,0,0,0,.4-3.292c.023-1.909.052-4.285,1.056-5.29a5.418,5.418,0,0,1,2.737-1.5.414.414,0,1,0-.114-.82,6.158,6.158,0,0,0-3.208,1.738c-1.243,1.243-1.272,3.7-1.3,5.864a8.394,8.394,0,0,1-.3,2.9,2.62,2.62,0,0,1-1.245,1.19.584.584,0,0,0,0,1.075,2.62,2.62,0,0,1,1.245,1.19,6.818,6.818,0,0,1,.373,2.5c.075,1.626.16,3.469,1.222,4.531a6.366,6.366,0,0,0,3.2,1.738.443.443,0,0,0,.065,0,.414.414,0,0,0,.065-.822Z" transform="translate(-62.23 -56.334)" fill="#059f8e"/>
      <circle id="Ellipse_37" data-name="Ellipse 37" cx="0.764" cy="0.764" r="0.764" transform="translate(4.73 9.447)" fill="#059f8e"/>
    </g>
  </g>
</svg>
