<svg xmlns="http://www.w3.org/2000/svg" width="52.83" height="35.23"><g data-name="Group 1"><path data-name="Path 1" d="M46.35 10.69C46.35 4.79 37.42 0 26.41 0S6.48 4.79 6.48 10.69s8.92 10.69 19.93 10.69a33.681 33.681 0 0010.38-1.56 23.069 23.069 0 01-3.87-.04c-3.07-.27-5.86-.62-8.75-.72a20.863 20.863 0 00-4.95.38 13.591 13.591 0 014.99-.71c3.22-.05 8.01.24 8.88.26a23.805 23.805 0 007.66-.88c3.79-2.12 5.6-4.8 5.6-7.43" fill="#005192" fill-rule="evenodd"/><path data-name="Path 2" d="M24.2 18.74a13.742 13.742 0 00-4.99.7 21.316 21.316 0 014.95-.37c2.89.1 5.69.45 8.75.72a23.069 23.069 0 003.87.04 22.85 22.85 0 003.95-1.7 23.805 23.805 0 01-7.66.88c-.88-.02-5.66-.31-8.88-.26" fill="#fff" fill-rule="evenodd"/><path data-name="Path 3" d="M21.6 3.98a11.383 11.383 0 013.9-.06 10.68 10.68 0 00-.36 3.09 6.034 6.034 0 00-2.31-.65 2.372 2.372 0 00-1.79.52 14.1 14.1 0 01.56-2.91" fill="#fff" fill-rule="evenodd"/><path data-name="Path 4" d="M30.07 2.18a5.388 5.388 0 01.11-.84.9.9 0 00-.91.22 2.441 2.441 0 01-1.26.7 2.7 2.7 0 001.41-.12c.13-.04.49-.18.62.05h.03z" fill="#fff" fill-rule="evenodd"/><path data-name="Path 5" d="M18.96 9.32l-5.69 5.49a18.336 18.336 0 013.84-.56 18.228 18.228 0 011.86-4.93" fill="#fff" fill-rule="evenodd"/><path data-name="Path 6" d="M20.12 7.46a18.14 18.14 0 015.6-.02 11.82 11.82 0 00-.47 3.93 9.762 9.762 0 00-3.33-.85 3.663 3.663 0 00-2.57.64 16.793 16.793 0 01.76-3.7" fill="#fff" fill-rule="evenodd"/><path data-name="Path 7" d="M18.69 11.7a22.469 22.469 0 016.5 0 12.1 12.1 0 00-.52 4.27 12.28 12.28 0 00-3.87-.95c-1.44-.02-2.35.08-2.97.6a16.1 16.1 0 01.86-3.93" fill="#fff" fill-rule="evenodd"/><path data-name="Path 8" d="M27.53 3.13a12.4 12.4 0 014.29-.08 12.194 12.194 0 00-.38 3.4 6.886 6.886 0 00-2.59-.7 2.629 2.629 0 00-1.97.58 9.591 9.591 0 01.65-3.2" fill="#fff" fill-rule="evenodd"/><path data-name="Path 9" d="M26.39 6.96a18.152 18.152 0 015.88-.05 13.888 13.888 0 00-.51 4.33 9.969 9.969 0 00-3.49-.93 3.721 3.721 0 00-2.7.72 18.816 18.816 0 01.81-4.07" fill="#fff" fill-rule="evenodd"/><path data-name="Path 10" d="M25.68 11.65a19.544 19.544 0 016.38-.06 15.944 15.944 0 00-.42 4.72 11.079 11.079 0 00-3.87-1.01 4.132 4.132 0 00-2.98.78 20.358 20.358 0 01.89-4.43" fill="#fff" fill-rule="evenodd"/><path data-name="Path 11" d="M33.59 7.64a8.722 8.722 0 012.88-.04 7.335 7.335 0 00-.26 2.23 4.6 4.6 0 00-1.71-.47 1.77 1.77 0 00-1.32.37 10.392 10.392 0 01.41-2.1" fill="#fff" fill-rule="evenodd"/><path data-name="Path 12" d="M32.88 10.18a13.364 13.364 0 014.14 0 8.343 8.343 0 00-.34 2.84 7.408 7.408 0 00-2.46-.62 2.773 2.773 0 00-1.9.46 11.453 11.453 0 01.56-2.67" fill="#fff" fill-rule="evenodd"/><path data-name="Path 13" d="M32.42 13.44a17.893 17.893 0 014.96.03 8.009 8.009 0 00-.39 3.03 9.467 9.467 0 00-2.96-.64 3.477 3.477 0 00-2.26.47 11.286 11.286 0 01.64-2.88" fill="#fff" fill-rule="evenodd"/><path data-name="Path 14" d="M35.45 18.22c-2.76.7-13.03-.85-16.4.63-.68-1.89-6.26-3.7-6.26-3.7 4.36.66 13.85 1.85 18.16 2.07a34.733 34.733 0 004.9-.01c-.15.45-.27.64-.39 1.01" fill="#fff" fill-rule="evenodd"/><path data-name="Path 15" d="M51.02 32.22a1.29 1.29 0 00-.95.36 1.228 1.228 0 00-.37.93 1.184 1.184 0 00.37.91 1.3 1.3 0 00.94.36 1.266 1.266 0 00.94-.37 1.245 1.245 0 00.38-.92 1.185 1.185 0 00-.38-.9 1.3 1.3 0 00-.93-.37m-.02-.46a1.845 1.845 0 011.31.5 1.727 1.727 0 01-.01 2.48 1.853 1.853 0 01-1.33.49 1.7 1.7 0 01-1.27-.49 1.645 1.645 0 01-.51-1.23 1.689 1.689 0 01.51-1.25 1.788 1.788 0 011.3-.5zm-3.5 1.76h1.13v1.43a3.12 3.12 0 01-1.24.27 1.813 1.813 0 01-1.34-.49 1.608 1.608 0 01-.5-1.21 1.682 1.682 0 01.52-1.26 1.779 1.779 0 011.3-.5 2.352 2.352 0 01.54.06 4.352 4.352 0 01.65.23v.49a2.4 2.4 0 00-1.2-.35 1.322 1.322 0 00-.93 2.25 1.361 1.361 0 00.98.36 2.223 2.223 0 00.69-.13h.05v-.72h-.65v-.43zm-4.3-1.71h1.92v.43h-1.43v1.03h1.38v.43h-1.38v1.05h1.48v.43h-1.96v-3.37zm-1.23 0h.48v3.38h-.48zm-1.34 0h.6l-1.47 1.6 1.83 1.78h-.66l-1.73-1.67v1.67h-.48v-3.38h.48v1.55l1.42-1.55zm-3.34 1.96l-.37-.22a1.636 1.636 0 01-.49-.42.775.775 0 01-.15-.47.82.82 0 01.28-.65 1 1 0 01.72-.25 1.333 1.333 0 01.78.24v.55a1.139 1.139 0 00-.79-.35.667.667 0 00-.39.11.334.334 0 00-.15.28.477.477 0 00.11.29 1.281 1.281 0 00.36.28l.37.22a1.094 1.094 0 01.62.94.867.867 0 01-.27.66.994.994 0 01-.71.25 1.453 1.453 0 01-.91-.31v-.61a1.14 1.14 0 00.91.5.549.549 0 00.38-.13.393.393 0 00.15-.32c0-.21-.15-.4-.45-.59zm-2.55-2.94l-.55.73h-.27l.33-.73h.49zm.53.97h.46v3.38h-.42l-2.26-2.6v2.6h-.45V31.8h.39l2.28 2.62zm-3.92 0h.48v3.38h-.48zm-1.18 0h.45v3.38h-.49v-2.63l-1.04 1.31H29l-1.05-1.31v2.63h-.48V31.8h.45l1.13 1.39 1.12-1.39zm-4.1-.97l-.55.73h-.27l.33-.73zm-1.97.97h2.91l-2.16 2.95h2.16v.43h-3.05l2.17-2.95H24.1zm-2.23.42a1.305 1.305 0 00-.95.36 1.228 1.228 0 00-.37.93 1.184 1.184 0 00.37.91 1.3 1.3 0 00.94.36 1.266 1.266 0 00.94-.37 1.245 1.245 0 00.38-.92 1.185 1.185 0 00-.38-.9 1.3 1.3 0 00-.93-.37zm-.02-.46a1.845 1.845 0 011.31.5 1.727 1.727 0 01-.01 2.48 1.853 1.853 0 01-1.33.49 1.7 1.7 0 01-1.27-.49 1.645 1.645 0 01-.51-1.23 1.689 1.689 0 01.51-1.25 1.788 1.788 0 011.3-.5zm-2.4.05h.6l-1.47 1.6 1.83 1.78h-.66l-1.72-1.67v1.67h-.48v-3.38h.48v1.55l1.42-1.55zm-4.8 1.95l-.54-1.22-.51 1.22zm-.71-1.97h.34l1.51 3.4h-.5l-.45-1H13.4l-.42 1h-.5l1.45-3.4zm-2.26.02h.46v3.38h-.42l-2.26-2.6v2.6h-.45v-3.38h.39l2.28 2.62v-2.62zm-5.08.41a1.305 1.305 0 00-.95.36 1.228 1.228 0 00-.37.93 1.184 1.184 0 00.37.91 1.3 1.3 0 00.94.36 1.266 1.266 0 00.94-.37 1.245 1.245 0 00.38-.92 1.185 1.185 0 00-.38-.9 1.3 1.3 0 00-.93-.37zm-.02-.46a1.845 1.845 0 011.31.5 1.727 1.727 0 01-.01 2.48 1.853 1.853 0 01-1.33.49 1.7 1.7 0 01-1.27-.49 1.645 1.645 0 01-.51-1.23 1.689 1.689 0 01.51-1.25 1.788 1.788 0 011.3-.5zm-4.14.05h1.92v.43H2.93v1.03h1.38v.43H2.93v1.05h1.48v.43H2.45v-3.37zm-2.43 0h.47v2.94H2v.44H0v-3.38zm37.42-3.8l-.54-1.22-.51 1.22zm-.71-1.97h.34l1.51 3.4h-.5l-.45-1h-1.44l-.42 1h-.5l1.45-3.4zm-2.31.02h.48v3.38h-.48v-3.38zm-1.18 0h.45v3.38h-.49v-2.63l-1.04 1.31h-.09l-1.05-1.31v2.63h-.48v-3.38h.45l1.13 1.39 1.12-1.39zm-5.17 0h1.92v.43h-1.43v1.03h1.38v.43h-1.38V29h1.48v.43h-1.96v-3.37zm-2.62.43h-.6V29h.62a2.61 2.61 0 00.56-.05 1.135 1.135 0 00.33-.13 1.1 1.1 0 00.25-.19 1.251 1.251 0 00.36-.92 1.141 1.141 0 00-.37-.89.945.945 0 00-.31-.21 1.276 1.276 0 00-.33-.11 2.965 2.965 0 00-.51-.03zm-1.09 2.94v-3.37h1.14a2.374 2.374 0 011.09.21 1.565 1.565 0 01.64.61 1.687 1.687 0 01.24.88 1.606 1.606 0 01-.13.65 1.575 1.575 0 01-.37.54 1.7 1.7 0 01-.57.37 1.89 1.89 0 01-.35.1 4.02 4.02 0 01-.61.03h-1.07zM22.83 28l-.54-1.22-.5 1.22h1.05zm-.71-1.97h.34l1.51 3.4h-.5l-.45-1h-1.44l-.43 1h-.5l1.45-3.4zm-2.42.02h.6l-1.47 1.6 1.83 1.78H20l-1.72-1.67v1.67h-.48v-3.38h.48v1.55l1.42-1.55zM16.27 28l-.54-1.22-.51 1.22zm-.71-1.97h.34l1.51 3.4h-.5l-.45-1h-1.44l-.42 1h-.5l1.45-3.4z" fill="#005091"/></g></svg>