<svg width="171" height="72" viewBox="0 0 171 72" fill="none" xmlns="http://www.w3.org/2000/svg">
<path d="M80.7983 7.71777H79.7498C79.3614 7.71777 78.9536 7.93139 78.74 8.25179L74.2253 14.7083L69.4971 8.25179C69.2641 7.93139 68.8563 7.71777 68.4679 7.71777H67.2446C66.8174 7.71777 66.4582 8.08672 66.4582 8.51392V21.9026C66.4582 22.3298 66.8174 22.6987 67.2446 22.6987H68.2931C68.7203 22.6987 69.0796 22.3395 69.0796 21.9026V11.9315L73.0117 17.3685C73.2933 17.7569 73.6719 17.9413 74.0409 17.9413C74.4098 17.9413 74.769 17.7472 75.0506 17.3685L78.9633 11.8732V21.9026C78.9633 22.3298 79.3323 22.6987 79.7595 22.6987H80.7886C81.2158 22.6987 81.5847 22.3395 81.5847 21.9026V8.51392C81.5847 8.08672 81.2158 7.71777 80.7886 7.71777H80.7983Z" fill="#1D1D1B"/>
<path d="M80.7982 22.7668H79.7691C79.3031 22.7668 78.905 22.3687 78.905 21.9027V12.0966L75.1282 17.4074C74.8466 17.7958 74.468 18.0191 74.0602 18.0191C73.6524 18.0191 73.2544 17.7958 72.9728 17.4074L69.1669 12.1549V21.9027C69.1669 22.3687 68.7688 22.7668 68.3028 22.7668H67.2542C66.7882 22.7668 66.3901 22.3687 66.3901 21.9027V8.51402C66.3901 8.04798 66.7882 7.6499 67.2542 7.6499H68.4775C68.8853 7.6499 69.3125 7.87323 69.5649 8.21304L74.235 14.5918L78.6914 8.21304C78.9147 7.87323 79.3419 7.6499 79.7594 7.6499H80.808C81.274 7.6499 81.672 8.04798 81.672 8.51402V21.9027C81.672 22.3687 81.274 22.7668 80.808 22.7668H80.7982ZM79.0506 11.65V21.9124C79.0506 22.3008 79.3807 22.6309 79.7691 22.6309H80.7982C81.1866 22.6309 81.5167 22.3008 81.5167 21.9124V8.52373C81.5167 8.13538 81.1866 7.80525 80.7982 7.80525H79.7497C79.3807 7.80525 79.0021 8.00916 78.8079 8.31014L74.235 14.854L74.1767 14.7763L69.4484 8.31982C69.2251 8.01885 68.8368 7.81497 68.4775 7.81497H67.2542C66.8658 7.81497 66.5357 8.14506 66.5357 8.53342V21.9221C66.5357 22.3105 66.8658 22.6406 67.2542 22.6406H68.3028C68.6911 22.6406 69.0212 22.3105 69.0212 21.9221V11.7277L73.0893 17.3395C73.3417 17.689 73.6913 17.8832 74.0602 17.8832C74.4291 17.8832 74.7495 17.689 75.002 17.3395L79.0506 11.6597V11.65Z" fill="#1D1D1B"/>
<path d="M89.4681 21.9026C89.4681 22.3298 89.8274 22.6987 90.2643 22.6987H91.3128C91.74 22.6987 92.0993 22.3395 92.0993 21.9026V16.4461L96.6722 8.94112C96.7596 8.8149 96.779 8.65954 96.779 8.53332C96.779 8.10613 96.4586 7.71777 95.9829 7.71777H95.2158C94.8275 7.71777 94.4488 7.93138 94.2547 8.27119L90.8953 13.9801L87.5166 8.27119C87.303 7.93138 86.9147 7.71777 86.536 7.71777H85.6136C85.1476 7.71777 84.7981 8.10614 84.7981 8.51392C84.7981 8.65955 84.8369 8.8149 84.9243 8.94112L89.4584 16.4461V21.9026H89.4681Z" fill="#1D1D1B"/>
<path d="M91.3032 22.7668H90.2546C89.7886 22.7668 89.3905 22.3687 89.3905 21.9027V16.4657L84.8661 8.98006C84.7788 8.84413 84.7302 8.67907 84.7302 8.51402C84.7302 8.09653 85.0894 7.6499 85.6137 7.6499H86.5361C86.9439 7.6499 87.3613 7.88293 87.5846 8.24217L90.9051 13.854L94.2062 8.25188C94.4101 7.89265 94.8081 7.65962 95.2353 7.65962H96.0023C96.4878 7.65962 96.8664 8.04798 96.8664 8.54314C96.8664 8.7179 96.8276 8.87324 96.7499 8.98975L92.1867 16.4754V21.9124C92.1867 22.3784 91.7886 22.7765 91.3226 22.7765L91.3032 22.7668ZM85.6137 7.79556C85.1671 7.79556 84.8759 8.16449 84.8759 8.51402C84.8759 8.64994 84.9147 8.78586 84.9924 8.90237L89.5362 16.4268V21.9027C89.5362 22.2911 89.8662 22.6212 90.2546 22.6212H91.3032C91.6916 22.6212 92.0217 22.2911 92.0217 21.9027V16.4074L96.614 8.90237C96.682 8.80528 96.7111 8.67906 96.7111 8.53342C96.7111 8.16448 96.4392 7.79556 95.9926 7.79556H95.2256C94.8567 7.79556 94.5071 7.99943 94.3227 8.31982L90.8954 14.1355L90.8372 14.0287L87.4584 8.31982C87.2643 7.99943 86.8953 7.79556 86.5361 7.79556H85.6137Z" fill="#1D1D1B"/>
<path d="M80.7982 29.0776H79.7496C79.3613 29.0776 78.9535 29.2913 78.7399 29.6116L74.2252 36.0681L69.4969 29.6116C69.2639 29.2913 68.8561 29.0776 68.4677 29.0776H67.2444C66.8172 29.0776 66.458 29.4466 66.458 29.8738V43.2625C66.458 43.6897 66.8172 44.0586 67.2444 44.0586H68.293C68.7202 44.0586 69.0794 43.6994 69.0794 43.2625V33.2913L73.0116 38.7284C73.2931 39.1167 73.6718 39.3012 74.0407 39.3012C74.4097 39.3012 74.7689 39.107 75.0504 38.7284L78.9632 33.2331V43.2625C78.9632 43.6897 79.3321 44.0586 79.7593 44.0586H80.7884C81.2156 44.0586 81.5846 43.6994 81.5846 43.2625V29.8738C81.5846 29.4466 81.2156 29.0776 80.7884 29.0776H80.7982Z" fill="#1D1D1B"/>
<path d="M80.7982 44.1269H79.7691C79.3031 44.1269 78.905 43.7289 78.905 43.2628V33.4567L75.1282 38.7676C74.8466 39.1559 74.468 39.3792 74.0602 39.3792C73.6524 39.3792 73.2544 39.1559 72.9728 38.7676L69.1669 33.515V43.2628C69.1669 43.7289 68.7688 44.1269 68.3028 44.1269H67.2542C66.7882 44.1269 66.3901 43.7289 66.3901 43.2628V29.8741C66.3901 29.4081 66.7882 29.01 67.2542 29.01H68.4775C68.8853 29.01 69.3125 29.2333 69.5649 29.5731L74.235 35.952L78.6914 29.5731C78.9147 29.2333 79.3419 29.01 79.7594 29.01H80.808C81.274 29.01 81.672 29.4081 81.672 29.8741V43.2628C81.672 43.7289 81.274 44.1269 80.808 44.1269H80.7982ZM79.0506 33.0101V43.2725C79.0506 43.6609 79.3807 43.991 79.7691 43.991H80.7982C81.1866 43.991 81.5167 43.6609 81.5167 43.2725V29.8838C81.5167 29.4955 81.1866 29.1654 80.7982 29.1654H79.7497C79.3807 29.1654 79.0021 29.3693 78.8079 29.6702L74.235 36.2141L74.1767 36.1364L69.4484 29.6799C69.2251 29.379 68.8368 29.1751 68.4775 29.1751H67.2542C66.8658 29.1751 66.5357 29.5052 66.5357 29.8935V43.2822C66.5357 43.6706 66.8658 44.0007 67.2542 44.0007H68.3028C68.6911 44.0007 69.0212 43.6706 69.0212 43.2822V33.0878L73.0893 38.6996C73.3417 39.0491 73.6913 39.2433 74.0602 39.2433C74.4291 39.2433 74.7495 39.0491 75.002 38.6996L79.0506 33.0198V33.0101Z" fill="#1D1D1B"/>
<path d="M92.9536 28.8447C88.3515 28.8447 85.167 32.2234 85.167 36.5634C85.167 41.2237 88.5069 44.282 92.9536 44.282C97.4003 44.282 100.76 41.0489 100.76 36.5634C100.76 32.0778 97.4003 28.8447 92.9536 28.8447ZM92.9536 41.8354C90.1477 41.8354 87.9438 39.5634 87.9438 36.5731C87.9438 33.5827 90.0797 31.3108 92.9536 31.3108C95.8274 31.3108 97.9829 33.4759 97.9829 36.5731C97.9829 39.6702 96.0993 41.8354 92.9536 41.8354Z" fill="#1D1D1B"/>
<path d="M92.9537 44.3695C88.3225 44.3695 85.0992 41.1655 85.0992 36.5732C85.0992 31.9808 88.4002 28.7769 92.9537 28.7769C97.5072 28.7769 100.837 31.9808 100.837 36.5732C100.837 41.1655 97.5266 44.3695 92.9537 44.3695ZM92.9537 28.9225C88.4876 28.9225 85.2448 32.1362 85.2448 36.5732C85.2448 41.0102 88.4196 44.2239 92.9537 44.2239C97.4878 44.2239 100.692 41.0102 100.692 36.5732C100.692 32.1362 97.5072 28.9225 92.9537 28.9225ZM92.9537 41.9034C90.109 41.9034 87.8759 39.5635 87.8759 36.5634C87.8759 33.5634 90.0119 31.2235 92.9537 31.2235C95.8955 31.2235 98.0509 33.4663 98.0509 36.5634C98.0509 39.6606 95.9538 41.9034 92.9537 41.9034ZM92.9537 31.3789C90.0993 31.3789 88.0216 33.5634 88.0216 36.5634C88.0216 39.5635 90.1867 41.7578 92.9537 41.7578C95.915 41.7578 97.9053 39.6703 97.9053 36.5634C97.9053 33.4566 95.8179 31.3789 92.9537 31.3789Z" fill="#1D1D1B"/>
<path d="M111.439 36.1457C112.721 35.5243 113.575 34.4369 113.575 32.7184C113.575 30.6407 112.226 29.0193 108.653 29.0193C107.517 29.0193 106.109 29.0581 105.119 29.0873C104.692 29.1067 104.323 29.4756 104.323 29.9222V43.2721C104.323 43.6993 104.692 44.0682 105.119 44.0876C106.1 44.1265 107.449 44.1556 108.498 44.1556C111.663 44.1556 114.061 42.7478 114.061 39.6603C114.061 37.67 112.906 36.534 111.43 36.1554L111.439 36.1457ZM106.964 31.5436C107.43 31.5048 108.012 31.4757 108.614 31.4757C110.032 31.4757 110.964 32.1165 110.964 33.3398C110.964 34.7088 109.954 35.3301 108.74 35.3301H106.964V31.5436ZM108.702 41.6798C107.954 41.6798 107.333 41.6118 106.973 41.573V37.6117H108.837C110.488 37.6117 111.449 38.2525 111.449 39.5147C111.449 40.9225 110.488 41.6798 108.711 41.6798H108.702Z" fill="#1D1D1B"/>
<path d="M108.507 44.2144C107.342 44.2144 106.012 44.1852 105.129 44.1464C104.653 44.1173 104.265 43.7289 104.265 43.2629V29.913C104.265 29.4373 104.653 29.0295 105.129 29.0101C105.371 29.0101 105.634 29.0004 105.905 28.9907C106.789 28.9713 107.799 28.9421 108.653 28.9421C112.993 28.9421 113.643 31.3111 113.643 32.7189C113.643 34.2529 112.944 35.418 111.634 36.1268C113.226 36.6122 114.139 37.8938 114.139 39.6511C114.139 42.5056 112.032 44.2144 108.507 44.2144ZM108.653 29.0878C107.799 29.0878 106.789 29.1072 105.905 29.1363C105.624 29.1363 105.362 29.146 105.129 29.1557C104.731 29.1752 104.41 29.515 104.41 29.913V43.2629C104.41 43.6415 104.74 43.9813 105.129 44.0008C106.012 44.0396 107.342 44.0687 108.507 44.0687C111.944 44.0687 113.993 42.4182 113.993 39.6511C113.993 37.8938 113.051 36.6414 111.42 36.2142L111.226 36.1656L111.401 36.0782C112.789 35.4083 113.498 34.2724 113.498 32.7189C113.498 30.3791 111.779 29.0878 108.653 29.0878ZM108.702 41.758C107.964 41.758 107.352 41.6997 106.964 41.6512H106.896V37.5443H108.828C110.556 37.5443 111.508 38.2433 111.508 39.5249C111.508 40.9619 110.507 41.758 108.692 41.758H108.702ZM107.041 41.5153C107.43 41.5638 108.012 41.6124 108.702 41.6124C110.449 41.6124 111.372 40.8939 111.372 39.5249C111.372 38.69 110.935 37.6899 108.838 37.6899H107.051V41.5056L107.041 41.5153ZM108.74 35.3986H106.896V31.4762H106.964C107.43 31.4276 108.003 31.4082 108.614 31.4082C110.129 31.4082 111.041 32.1364 111.041 33.3403C111.041 34.6122 110.158 35.3986 108.74 35.3986ZM107.041 35.253H108.74C110.09 35.253 110.896 34.5345 110.896 33.3403C110.896 32.2238 110.041 31.5539 108.614 31.5539C108.032 31.5539 107.488 31.5733 107.041 31.6121V35.2627V35.253Z" fill="#1D1D1B"/>
<path d="M119.177 29.0776H120.226C120.663 29.0776 121.022 29.4369 121.022 29.8738V43.2625C121.022 43.6994 120.663 44.0586 120.226 44.0586H119.177C118.741 44.0586 118.391 43.7091 118.391 43.2722V29.8835C118.391 29.4466 118.75 29.0874 119.187 29.0874L119.177 29.0776Z" fill="#1D1D1B"/>
<path d="M120.226 44.1269H119.178C118.712 44.1269 118.314 43.7289 118.314 43.2628V29.8741C118.314 29.4081 118.712 29.01 119.178 29.01H120.226C120.692 29.01 121.09 29.4081 121.09 29.8741V43.2628C121.09 43.7289 120.692 44.1269 120.226 44.1269ZM119.178 29.1557C118.789 29.1557 118.459 29.4858 118.459 29.8741V43.2628C118.459 43.6512 118.789 43.9813 119.178 43.9813H120.226C120.615 43.9813 120.945 43.6512 120.945 43.2628V29.8741C120.945 29.4858 120.615 29.1557 120.226 29.1557H119.178Z" fill="#1D1D1B"/>
<path d="M134.605 41.602H128.663V29.8735C128.663 29.4463 128.294 29.0774 127.867 29.0774H126.819C126.391 29.0774 126.022 29.4463 126.022 29.8735V43.2622C126.022 43.6894 126.391 44.0583 126.819 44.0583H134.605C135.032 44.0583 135.401 43.6991 135.401 43.2622V42.3884C135.401 41.9612 135.042 41.602 134.605 41.602Z" fill="#1D1D1B"/>
<path d="M134.605 44.1269H126.819C126.353 44.1269 125.955 43.7289 125.955 43.2628V29.8741C125.955 29.4081 126.353 29.01 126.819 29.01H127.867C128.333 29.01 128.731 29.4081 128.731 29.8741V41.5249H134.605C135.071 41.5249 135.47 41.923 135.47 42.389V43.2628C135.47 43.7289 135.071 44.1269 134.605 44.1269ZM126.819 29.1557C126.43 29.1557 126.1 29.4858 126.1 29.8741V43.2628C126.1 43.6512 126.43 43.9813 126.819 43.9813H134.605C134.994 43.9813 135.324 43.6512 135.324 43.2628V42.389C135.324 42.0006 134.994 41.6705 134.605 41.6705H128.586V29.8741C128.586 29.4858 128.256 29.1557 127.867 29.1557H126.819Z" fill="#1D1D1B"/>
<path d="M139.382 29.0774H140.431C140.867 29.0774 141.227 29.4366 141.227 29.8735V43.2622C141.227 43.6991 140.867 44.0583 140.431 44.0583H139.382C138.945 44.0583 138.586 43.6991 138.586 43.2622V29.8735C138.586 29.4366 138.945 29.0774 139.382 29.0774Z" fill="#1D1D1B"/>
<path d="M140.431 44.1269H139.382C138.916 44.1269 138.518 43.7289 138.518 43.2628V29.8741C138.518 29.4081 138.916 29.01 139.382 29.01H140.431C140.897 29.01 141.295 29.4081 141.295 29.8741V43.2628C141.295 43.7289 140.897 44.1269 140.431 44.1269ZM139.382 29.1557C138.994 29.1557 138.664 29.4858 138.664 29.8741V43.2628C138.664 43.6512 138.994 43.9813 139.382 43.9813H140.431C140.819 43.9813 141.149 43.6512 141.149 43.2628V29.8741C141.149 29.4858 140.819 29.1557 140.431 29.1557H139.382Z" fill="#1D1D1B"/>
<path d="M155.916 29.0776H145.159C144.732 29.0776 144.363 29.4466 144.363 29.8738V30.7476C144.363 31.1748 144.722 31.5437 145.159 31.5437H149.227V43.2625C149.227 43.6897 149.586 44.0586 150.023 44.0586H151.072C151.499 44.0586 151.868 43.6994 151.868 43.2625V31.5437H155.936C156.363 31.5437 156.732 31.1845 156.732 30.7476V29.8738C156.732 29.4466 156.363 29.0776 155.936 29.0776H155.916Z" fill="#1D1D1B"/>
<path d="M151.062 44.1269H150.014C149.548 44.1269 149.15 43.7289 149.15 43.2628V31.612H145.159C144.693 31.612 144.295 31.214 144.295 30.7479V29.8741C144.295 29.4081 144.693 29.01 145.159 29.01H155.917C156.383 29.01 156.781 29.4081 156.781 29.8741V30.7479C156.781 31.214 156.383 31.612 155.917 31.612H151.926V43.2628C151.926 43.7289 151.528 44.1269 151.062 44.1269ZM145.159 29.1557C144.771 29.1557 144.441 29.4858 144.441 29.8741V30.7479C144.441 31.1363 144.771 31.4664 145.159 31.4664H149.295V43.2628C149.295 43.6512 149.625 43.9813 150.014 43.9813H151.062C151.451 43.9813 151.781 43.6512 151.781 43.2628V31.4664H155.917C156.305 31.4664 156.635 31.1363 156.635 30.7479V29.8741C156.635 29.4858 156.305 29.1557 155.917 29.1557H145.159Z" fill="#1D1D1B"/>
<path d="M169.247 29.0774H168.48C168.091 29.0774 167.713 29.291 167.519 29.6308L164.159 35.3397L160.781 29.6308C160.567 29.291 160.179 29.0774 159.8 29.0774H158.878C158.412 29.0774 158.062 29.4658 158.062 29.8735C158.062 30.0192 158.101 30.1745 158.188 30.3007L162.722 37.8058V43.2622C162.722 43.6894 163.082 44.0583 163.509 44.0583H164.557C164.985 44.0583 165.344 43.6991 165.344 43.2622V37.8058L169.926 30.3007C170.014 30.1745 170.033 30.0192 170.033 29.8929C170.033 29.4657 169.713 29.0774 169.237 29.0774H169.247Z" fill="#1D1D1B"/>
<path d="M164.558 44.1269H163.509C163.043 44.1269 162.645 43.7289 162.645 43.2628V37.8258L158.121 30.3402C158.033 30.2042 157.985 30.0392 157.985 29.8741C157.985 29.4566 158.344 29.01 158.868 29.01H159.791C160.198 29.01 160.616 29.243 160.839 29.6023L164.16 35.2141L167.461 29.612C167.665 29.2528 168.063 29.0197 168.48 29.0197H169.247C169.733 29.0197 170.111 29.4081 170.111 29.9032C170.111 30.078 170.072 30.2333 169.995 30.3499L165.431 37.8355V43.2725C165.431 43.7385 165.033 44.1366 164.567 44.1366L164.558 44.1269ZM158.868 29.1557C158.422 29.1557 158.13 29.5246 158.13 29.8741C158.13 30.01 158.169 30.146 158.247 30.2625L162.791 37.7869V43.2628C162.791 43.6512 163.121 43.9813 163.509 43.9813H164.558C164.946 43.9813 165.276 43.6512 165.276 43.2628V37.7869L169.868 30.2625C169.936 30.1654 169.966 30.0392 169.966 29.8935C169.966 29.5246 169.694 29.1557 169.247 29.1557H168.48C168.121 29.1557 167.752 29.3595 167.587 29.6799L164.16 35.4956L164.101 35.3888L160.723 29.6799C160.528 29.3595 160.159 29.1557 159.8 29.1557H158.878H158.868Z" fill="#1D1D1B"/>
<path d="M19.5734 68.671C19.5734 68.671 15.0781 67.904 11.3401 64.1952C8.83523 61.7097 8.60222 56.7387 8.39833 52.3502C8.24298 49.0103 8.09735 45.8549 6.97111 43.8452C5.86428 41.8645 4.51475 40.6509 3.32055 39.9033C4.51475 39.1557 5.86428 37.9421 6.97111 35.9615C8.07793 33.9905 8.11679 30.3691 8.17504 26.1651C8.243 20.4853 8.33036 13.4172 11.3401 10.4268C15.1752 6.62092 19.5054 5.96069 19.5443 5.95098C20.2239 5.85389 20.6996 5.23253 20.6025 4.56261C20.5054 3.89269 19.8841 3.41696 19.2044 3.51405C19.0005 3.54317 14.0392 4.27134 9.58282 8.68892C5.85457 12.388 5.76721 19.6892 5.68954 26.136C5.641 29.8351 5.60215 33.3401 4.7963 34.7673C3.61181 36.8935 2.10691 37.8644 1.05834 38.3111C0.417544 38.5829 6.10352e-05 39.214 6.10352e-05 39.913C6.10352e-05 40.6121 0.417544 41.2334 1.05834 41.515C2.10691 41.9616 3.6021 42.9325 4.7963 45.0588C5.64098 46.5637 5.7769 49.4376 5.91283 52.4862C6.13614 57.3213 6.38859 62.8068 9.57314 65.9622C13.9033 70.2536 18.9617 71.0983 19.1753 71.1274C19.2433 71.1371 19.3112 71.1469 19.3695 71.1469C19.9715 71.1469 20.4957 70.7197 20.5928 70.108C20.6996 69.4381 20.2433 68.807 19.5637 68.7002L19.5734 68.671Z" fill="#0B2F9D"/>
<path d="M14.1847 33.8739C14.1847 35.1264 15.2139 36.1458 16.476 36.1458C17.7382 36.1458 18.7674 35.1264 18.7674 33.8739C18.7674 32.6215 17.7382 31.6021 16.476 31.6021C15.2139 31.6021 14.1847 32.6215 14.1847 33.8739Z" fill="#0B2F9D"/>
<path d="M50.545 13.9995C49.1275 12.2616 46.8362 10.7955 44.1079 9.79551C44.4769 8.6984 44.7099 7.74691 44.7099 7.0867C44.7099 3.64972 41.8166 0.853516 38.2534 0.853516C34.6902 0.853516 31.7872 3.64972 31.7872 7.0867C31.7872 7.58185 31.9232 8.25176 32.1465 9.01877C29.4474 9.75666 26.6997 11.1256 24.6997 13.1451C22.6802 15.184 21.7093 17.6112 21.9035 20.1841C22.5152 28.1163 31.0299 30.563 35.8262 30.796L41.6807 36.2331C41.8943 36.4272 42.1661 36.534 42.438 36.534C42.5933 36.534 42.739 36.5049 42.8846 36.437C43.2924 36.2622 43.5545 35.8641 43.5545 35.4175V29.3009C43.5545 28.6892 43.0594 28.1843 42.438 28.1843C41.8166 28.1843 41.3215 28.6892 41.3215 29.3009V32.8543L37.0398 28.8834C36.8456 28.6989 36.5835 28.5921 36.3019 28.5824C35.8359 28.5727 24.7579 28.2135 24.1366 20.0191C23.9909 18.087 24.7094 16.3005 26.2823 14.7179C28.0396 12.9509 30.5056 11.7567 32.8843 11.1353C33.9038 13.7373 35.4184 16.7665 36.3893 18.6404C33.8941 18.7666 31.5736 19.5336 31.1659 21.1647C30.9426 22.0288 31.195 23.291 33.6222 24.359C37.8748 26.2328 44.1662 25.9221 48.2537 23.6308C50.4868 22.3784 51.8072 20.6987 52.0693 18.7666C52.2829 17.1355 51.7586 15.4947 50.545 13.9995ZM34.3213 8.56245C34.1271 7.94108 34.0203 7.42651 34.0203 7.0867C34.0203 4.88276 35.9233 3.0866 38.2534 3.0866C40.5836 3.0866 42.4768 4.88276 42.4768 7.0867C42.4768 7.53331 42.2924 8.25177 41.9817 9.145C41.7681 9.77608 41.4865 10.4848 41.1661 11.2421C40.3408 13.1936 39.2437 15.4558 38.2534 17.3879C37.166 15.2811 35.9621 12.7859 35.1077 10.7178C34.7873 9.92171 34.5155 9.18383 34.3213 8.56245ZM49.8557 18.4656C49.6518 19.9899 48.2731 21.0579 47.1663 21.6793C43.6905 23.6308 38.1369 23.9124 34.5155 22.3201C33.8552 22.0191 33.5446 21.7861 33.4184 21.6502C33.8747 21.2812 35.564 20.689 38.166 20.8929H38.2534C38.3214 20.8929 38.3894 20.8832 38.4573 20.8735C38.535 20.8638 38.5932 20.8443 38.6612 20.8152C38.9039 20.7181 39.1078 20.5433 39.234 20.3103C39.2437 20.3006 39.2437 20.2909 39.2534 20.2715C39.6709 19.5045 41.8361 15.4559 43.3118 11.8927C45.6711 12.747 47.6517 13.9801 48.8071 15.4073C49.6421 16.4267 49.9916 17.4559 49.8557 18.4656Z" fill="#0B2F9D"/>
<path d="M41.0887 8.92202C41.3217 8.48512 41.4479 7.98996 41.4479 7.46567C41.4479 5.69864 40.0207 4.26172 38.2537 4.26172C36.4866 4.26172 35.0497 5.69864 35.0497 7.46567C35.0497 7.8152 35.108 8.14532 35.2147 8.45601C35.6322 9.73759 36.8362 10.6599 38.2537 10.6599C39.4964 10.6599 40.5644 9.95117 41.0887 8.92202ZM36.9915 7.46567C36.9915 6.76662 37.5546 6.20352 38.2537 6.20352C38.9527 6.20352 39.5061 6.76662 39.5061 7.46567C39.5061 7.92199 39.2537 8.32979 38.8847 8.54338C38.7003 8.65018 38.4867 8.71814 38.2537 8.71814C37.9333 8.71814 37.6517 8.60162 37.4284 8.40744C37.1565 8.18414 36.9915 7.84432 36.9915 7.46567Z" fill="#0B2F9D"/>
</svg>
