<svg width="171" height="50" viewBox="0 0 171 50" fill="none" xmlns="http://www.w3.org/2000/svg">
<g clip-path="url(#clip0_288_89)">
<path d="M24.3123 0.517334C11.3638 0.517334 0.86969 11.4792 0.86969 25.0001C0.86969 38.5209 11.3638 49.4828 24.3123 49.4828C37.2607 49.4828 47.7585 38.5209 47.7585 25.0001C47.7585 11.4792 37.2607 0.517334 24.3123 0.517334ZM24.3123 47.0326C12.6579 47.0326 3.21246 37.1696 3.21246 25.0001C3.21246 12.8305 12.6579 2.96755 24.3123 2.96755C35.9666 2.96755 45.4121 12.8305 45.4121 25.0001C45.4121 37.1696 35.9666 47.0326 24.3123 47.0326Z" fill="#FCCB00"/>
<path d="M17.5555 34.8979L17.0534 36.424L15.5027 36.4512L16.7411 37.4258L16.2874 38.9713L17.5555 38.0432L18.8235 38.9713L18.3699 37.4258L19.6082 36.4512L18.0575 36.424L17.5555 34.8979Z" fill="#FCCB00"/>
<path d="M33.0289 26.3899L33.3599 27.9703L34.892 28.1878L33.5532 28.9993L33.8321 30.5914L32.6756 29.5119L31.3146 30.2807L31.9393 28.8013L30.82 27.683L32.3595 27.846L33.0289 26.3899Z" fill="#FCCB00"/>
<path d="M28.295 29.2363L28.6334 30.8129L30.173 31.0187L28.838 31.8419L29.128 33.43L27.9641 32.3622L26.6067 33.1427L27.2203 31.6555L26.0936 30.5488L27.6368 30.7002L28.295 29.2363Z" fill="#FCCB00"/>
<path d="M23.4087 32.1912L23.7917 33.7599L25.3349 33.9114L24.026 34.7773L24.3606 36.3577L23.1669 35.3287L21.8357 36.148L22.4046 34.6453L21.2444 33.5735L22.7914 33.6745L23.4087 32.1912Z" fill="#FCCB00"/>
<path d="M17.5555 22.6895L17.0534 24.2194L15.5027 24.2466L16.7411 25.2173L16.2874 26.7628L17.5555 25.8347L18.8235 26.7628L18.3699 25.2173L19.6082 24.2466L18.0575 24.2194L17.5555 22.6895Z" fill="#FCCB00"/>
<path d="M17.5555 10.8113L17.0534 12.3412L15.5027 12.3684L16.7411 13.3392L16.2874 14.8846L17.5555 13.9527L18.8235 14.8846L18.3699 13.3392L19.6082 12.3684L18.0575 12.3412L17.5555 10.8113Z" fill="#FCCB00"/>
<path d="M17.5555 29.3684L17.0534 30.8983L15.5027 30.9255L16.7411 31.8963L16.2874 33.4417L17.5555 32.5137L18.8235 33.4417L18.3699 31.8963L19.6082 30.9255L18.0575 30.8983L17.5555 29.3684Z" fill="#FCCB00"/>
<path d="M17.5555 16.6589L18.0575 18.1889L19.6082 18.2122L18.3699 19.1868L18.8235 20.7323L17.5555 19.8042L16.2874 20.7323L16.7411 19.1868L15.5027 18.2122L17.0534 18.1889L17.5555 16.6589Z" fill="#FCCB00"/>
<path d="M37.8 23.0972L38.3057 24.6271L39.8527 24.6543L38.6144 25.625L39.068 27.1744L37.8 26.2425L36.5356 27.1744L36.9893 25.625L35.751 24.6543L37.2979 24.6271L37.8 23.0972Z" fill="#FCCB00"/>
<path d="M33.0289 23.6602L33.3599 22.0798L34.892 21.8624L33.5532 21.0508L33.8321 19.4587L32.6756 20.5382L31.3146 19.7694L31.9393 21.2488L30.82 22.3672L32.3595 22.2041L33.0289 23.6602Z" fill="#FCCB00"/>
<path d="M28.295 20.8143L28.6334 19.2378L30.173 19.032L28.838 18.2088L29.128 16.6206L27.9641 17.6884L26.6067 16.9118L27.2203 18.3952L26.0936 19.5018L27.6368 19.3504L28.295 20.8143Z" fill="#FCCB00"/>
<path d="M23.4087 17.8592L23.7917 16.2943L25.3349 16.139L24.026 15.273L24.3606 13.6926L23.1669 14.7255L21.8357 13.9023L22.4046 15.4089L21.2444 16.4807L22.7914 16.3758L23.4087 17.8592Z" fill="#FCCB00"/>
<path d="M58.4275 35.5851H56.226V37.3208H58.182V38.113H56.226V39.9264H58.4275V40.7185H55.2963V34.793H58.4275V35.5851Z" fill="#969596"/>
<path d="M63.6373 40.7188H62.7077V40.1558C62.4139 40.5557 61.9082 40.7848 61.3801 40.7848C60.3277 40.7848 59.5282 40.0937 59.5282 38.7851V36.0281H60.4504V38.6414C60.4504 39.5034 60.9004 39.9422 61.5735 39.9422C62.2466 39.9422 62.7077 39.4995 62.7077 38.6414V36.0281H63.6373V40.7188Z" fill="#969596"/>
<path d="M65.7904 40.7186H64.8608V36.0279H65.7904V36.7074C66.0508 36.2375 66.5007 35.9502 67.1366 35.9502V36.9559H66.8986C66.2144 36.9559 65.7904 37.2549 65.7904 38.249V40.7186Z" fill="#969596"/>
<path d="M69.9368 40.7963C68.6575 40.7963 67.687 39.841 67.687 38.3693C67.687 36.8977 68.6984 35.9502 69.9777 35.9502C71.2569 35.9502 72.2684 36.8977 72.2684 38.3693C72.2684 39.841 71.2234 40.7963 69.9368 40.7963ZM69.9368 39.9536C70.6284 39.9536 71.3164 39.4333 71.3164 38.3693C71.3164 37.3054 70.6545 36.7928 69.9628 36.7928C69.2711 36.7928 68.6352 37.3054 68.6352 38.3693C68.6352 39.4333 69.2376 39.9536 69.9405 39.9536H69.9368Z" fill="#969596"/>
<path d="M75.6858 35.9502C76.8683 35.9502 77.798 36.9015 77.798 38.3499C77.798 39.7983 76.8683 40.7924 75.6858 40.7924C74.9421 40.7924 74.414 40.4002 74.1202 40.0352V42.9475H73.1906V36.024H74.1202V36.7152C74.4066 36.323 74.9495 35.9502 75.6858 35.9502ZM75.4813 36.7928C74.7896 36.7928 74.1202 37.3636 74.1202 38.3693C74.1202 39.3751 74.7896 39.9536 75.4813 39.9536C76.1729 39.9536 76.8497 39.3673 76.8497 38.3538C76.8497 37.3403 76.1804 36.7928 75.4813 36.7928Z" fill="#969596"/>
<path d="M80.6503 40.7963C79.3636 40.7963 78.4079 39.841 78.4079 38.3693C78.4079 36.8977 79.319 35.9502 80.6503 35.9502C81.9816 35.9502 82.8368 36.8782 82.8368 38.2567C82.8368 38.4198 82.8294 38.5713 82.8034 38.7344H79.371C79.4343 39.511 79.966 39.9769 80.6503 39.9769C81.2229 39.9769 81.539 39.6896 81.7101 39.3207H82.7141C82.4575 40.14 81.751 40.7924 80.6503 40.7924V40.7963ZM79.3785 37.9539H81.8663C81.8477 37.2316 81.3048 36.7695 80.6094 36.7695C79.9809 36.7695 79.4752 37.2122 79.3785 37.9539Z" fill="#969596"/>
<path d="M85.5589 35.9502C86.3175 35.9502 86.8381 36.323 87.117 36.7074V36.0279H88.0542V40.7186H87.117V40.0197C86.8307 40.4196 86.2915 40.7963 85.544 40.7963C84.3801 40.7963 83.4393 39.8022 83.4393 38.3538C83.4393 36.9054 84.3764 35.9541 85.5589 35.9541V35.9502ZM85.756 36.7928C85.0643 36.7928 84.395 37.3365 84.395 38.3499C84.395 39.3634 85.0643 39.9498 85.756 39.9498C86.4477 39.9498 87.117 39.3789 87.117 38.3655C87.117 37.352 86.4588 36.7928 85.756 36.7928Z" fill="#969596"/>
<path d="M92.4646 38.0975C92.4646 37.2355 92.0146 36.7967 91.3415 36.7967C90.6684 36.7967 90.2073 37.2394 90.2073 38.0975V40.7186H89.2776V36.0279H90.2073V36.5637C90.5085 36.1793 91.0068 35.9502 91.546 35.9502C92.5984 35.9502 93.3905 36.6414 93.3905 37.95V40.7186H92.4683V38.0975H92.4646Z" fill="#969596"/>
<path d="M96.6778 34.8008H97.6075V38.5712C97.6075 39.4915 98.1058 39.9264 98.8867 39.9264C99.6676 39.9264 100.173 39.4915 100.173 38.5712V34.8008H101.103V38.5557C101.103 40.0623 100.058 40.7768 98.8755 40.7768C97.693 40.7768 96.6741 40.0623 96.6741 38.5557V34.8008H96.6778Z" fill="#969596"/>
<path d="M105.498 38.0975C105.498 37.2355 105.049 36.7967 104.375 36.7967C103.702 36.7967 103.241 37.2394 103.241 38.0975V40.7186H102.312V36.0279H103.241V36.5637C103.542 36.1793 104.041 35.9502 104.58 35.9502C105.632 35.9502 106.424 36.6414 106.424 37.95V40.7186H105.502V38.0975H105.498Z" fill="#969596"/>
<path d="M107.481 34.7854C107.481 34.4359 107.741 34.1641 108.076 34.1641C108.41 34.1641 108.663 34.4359 108.663 34.7854C108.663 35.1348 108.403 35.4066 108.076 35.4066C107.741 35.4066 107.481 35.1348 107.481 34.7854ZM107.603 36.0279H108.533V40.7187H107.603V36.0279Z" fill="#969596"/>
<path d="M110.217 36.0281L111.489 39.8529L112.761 36.0281H113.747L112.032 40.7188H110.924L109.221 36.0281H110.214H110.217Z" fill="#969596"/>
<path d="M116.383 40.7963C115.096 40.7963 114.141 39.841 114.141 38.3693C114.141 36.8977 115.052 35.9502 116.383 35.9502C117.714 35.9502 118.57 36.8782 118.57 38.2567C118.57 38.4198 118.562 38.5713 118.536 38.7344H115.104C115.167 39.511 115.699 39.9769 116.383 39.9769C116.956 39.9769 117.272 39.6896 117.443 39.3207H118.447C118.19 40.14 117.484 40.7924 116.383 40.7924V40.7963ZM115.111 37.9539H117.599C117.581 37.2316 117.038 36.7695 116.342 36.7695C115.714 36.7695 115.208 37.2122 115.111 37.9539Z" fill="#969596"/>
<path d="M120.41 40.7186H119.481V36.0279H120.41V36.7074C120.671 36.2375 121.121 35.9502 121.757 35.9502V36.9559H121.519C120.834 36.9559 120.41 37.2549 120.41 38.249V40.7186Z" fill="#969596"/>
<path d="M124.241 40.7963C123.166 40.7963 122.407 40.1323 122.366 39.2819H123.33C123.363 39.6663 123.713 39.9808 124.226 39.9808C124.765 39.9808 125.051 39.744 125.051 39.4178C125.051 38.4975 122.441 39.0256 122.441 37.3054C122.441 36.556 123.11 35.9502 124.17 35.9502C125.23 35.9502 125.858 36.521 125.907 37.4568H124.977C124.943 37.0491 124.642 36.7656 124.137 36.7656C123.631 36.7656 123.378 36.9792 123.378 37.2937C123.378 38.2412 125.914 37.7092 125.962 39.4061C125.962 40.1983 125.304 40.7924 124.244 40.7924L124.241 40.7963Z" fill="#969596"/>
<path d="M126.844 34.7854C126.844 34.4359 127.104 34.1641 127.439 34.1641C127.773 34.1641 128.026 34.4359 128.026 34.7854C128.026 35.1348 127.766 35.4066 127.439 35.4066C127.104 35.4066 126.844 35.1348 126.844 34.7854ZM126.966 36.0279H127.896V40.7187H126.966V36.0279Z" fill="#969596"/>
<path d="M129.265 36.8201H128.733V36.028H129.265V34.863H130.202V36.028H131.295V36.8201H130.202V39.4179C130.202 39.7674 130.332 39.911 130.722 39.911H131.295V40.7187H130.562C129.763 40.7187 129.265 40.3692 129.265 39.4179V36.8201Z" fill="#969596"/>
<path d="M135.233 36.0281H136.196L133.441 42.9244H132.478L133.389 40.6412L131.619 36.0281H132.656L133.92 39.6044L135.233 36.0281Z" fill="#969596"/>
<path d="M142.432 39.5109H140.06L139.651 40.7185H138.68L140.711 34.793H141.789L143.82 40.7185H142.842L142.432 39.5109ZM141.25 35.9695L140.32 38.7188H142.172L141.25 35.9695Z" fill="#969596"/>
<path d="M144.697 34.4204H145.627V40.7187H144.697V34.4204Z" fill="#969596"/>
<path d="M146.85 34.4204H147.78V40.7187H146.85V34.4204Z" fill="#969596"/>
<path d="M148.881 34.7854C148.881 34.4359 149.141 34.1641 149.476 34.1641C149.81 34.1641 150.063 34.4359 150.063 34.7854C150.063 35.1348 149.803 35.4066 149.476 35.4066C149.141 35.4066 148.881 35.1348 148.881 34.7854ZM149 36.0279H149.929V40.7187H149V36.0279Z" fill="#969596"/>
<path d="M152.964 35.9502C153.722 35.9502 154.243 36.323 154.522 36.7074V36.0279H155.459V40.7186H154.522V40.0197C154.236 40.4196 153.696 40.7963 152.949 40.7963C151.785 40.7963 150.844 39.8022 150.844 38.3538C150.844 36.9054 151.781 35.9541 152.964 35.9541V35.9502ZM153.157 36.7928C152.465 36.7928 151.796 37.3365 151.796 38.3499C151.796 39.3634 152.465 39.9498 153.157 39.9498C153.849 39.9498 154.518 39.3789 154.518 38.3655C154.518 37.352 153.86 36.7928 153.157 36.7928Z" fill="#969596"/>
<path d="M159.869 38.0975C159.869 37.2355 159.419 36.7967 158.746 36.7967C158.073 36.7967 157.612 37.2394 157.612 38.0975V40.7186H156.682V36.0279H157.612V36.5637C157.913 36.1793 158.412 35.9502 158.951 35.9502C160.003 35.9502 160.795 36.6414 160.795 37.95V40.7186H159.873V38.0975H159.869Z" fill="#969596"/>
<path d="M163.863 35.9502C164.964 35.9502 165.682 36.521 165.935 37.5073H164.931C164.774 37.0568 164.417 36.7656 163.863 36.7656C163.112 36.7656 162.617 37.3442 162.617 38.3654C162.617 39.3867 163.116 39.973 163.863 39.973C164.417 39.973 164.759 39.7167 164.931 39.2314H165.935C165.682 40.1517 164.964 40.7885 163.863 40.7885C162.577 40.7885 161.662 39.8332 161.662 38.3616C161.662 36.8899 162.577 35.9463 163.863 35.9463V35.9502Z" fill="#969596"/>
<path d="M168.794 40.7963C167.508 40.7963 166.552 39.841 166.552 38.3693C166.552 36.8977 167.463 35.9502 168.794 35.9502C170.125 35.9502 170.981 36.8782 170.981 38.2567C170.981 38.4198 170.973 38.5713 170.947 38.7344H167.515C167.578 39.511 168.11 39.9769 168.794 39.9769C169.367 39.9769 169.683 39.6896 169.854 39.3207H170.858C170.601 40.14 169.895 40.7924 168.794 40.7924V40.7963ZM167.522 37.9539H170.01C169.992 37.2316 169.449 36.7695 168.753 36.7695C168.125 36.7695 167.619 37.2122 167.522 37.9539Z" fill="#969596"/>
<path d="M67.4713 13.7236H60.1975V17.8862H66.6271V21.7576H60.1975V26.2736H67.4713V30.2887H55.3967V9.70459H67.4713V13.7236Z" fill="#0B2F9D"/>
<path d="M70.502 9.70459H75.3028V22.0217C75.3028 24.4564 76.4556 25.862 78.7315 25.862C81.0073 25.862 82.2159 24.4564 82.2159 22.0217V9.70459H87.0167V21.9906C87.0167 27.6793 83.1976 30.4945 78.6496 30.4945C74.1017 30.4945 70.5057 27.6793 70.5057 21.9906V9.70459H70.502Z" fill="#0B2F9D"/>
<path d="M97.4624 30.5564C93.0521 30.5564 89.7127 27.2713 89.7127 22.2C89.7127 17.1287 93.1971 13.8708 97.6038 13.8708C102.01 13.8708 105.495 17.1249 105.495 22.2C105.495 27.2752 101.903 30.5564 97.4624 30.5564ZM97.4624 27.6519C99.8498 27.6519 102.207 25.8618 102.207 22.2C102.207 18.5383 99.9316 16.7754 97.5443 16.7754C95.1569 16.7754 92.9666 18.5344 92.9666 22.2C92.9666 25.8656 95.0453 27.6519 97.4587 27.6519H97.4624Z" fill="#FCCB00"/>
<path d="M119.648 21.2567C119.648 18.2939 118.105 16.7717 115.773 16.7717C113.442 16.7717 111.872 18.2939 111.872 21.2567V30.2887H108.671V14.1312H111.872V15.9796C112.914 14.6593 114.624 13.8672 116.48 13.8672C120.102 13.8672 122.824 16.2436 122.824 20.7596V30.2887H119.652V21.2567H119.648Z" fill="#FCCB00"/>
<path d="M138.799 26.6542H131.444L130.265 30.2926H125.237L132.37 9.7085H137.929L145.062 30.2926H139.978L138.799 26.6581V26.6542ZM135.118 15.2496L132.704 22.7867H137.561L135.118 15.2496Z" fill="#0B2F9D"/>
<path d="M147.222 9.70459H152.023V30.2887H147.222V9.70459Z" fill="#0B2F9D"/>
<path d="M163.566 9.70459C168.396 9.70459 170.81 12.6052 170.81 16.1854C170.81 18.7638 169.464 21.1985 166.429 22.1382L170.981 30.2887H165.563L161.465 22.5187H160.312V30.2887H155.511V9.70459H163.569H163.566ZM163.287 13.8711H160.312V18.9735H163.287C165.083 18.9735 165.927 18.0066 165.927 16.3951C165.927 14.8691 165.083 13.8711 163.287 13.8711Z" fill="#969596"/>
</g>
<defs>
<clipPath id="clip0_288_89">
<rect width="170.111" height="48.9655" fill="white" transform="translate(0.86969 0.517334)"/>
</clipPath>
</defs>
</svg>
